# VPXTOOL table OBJ file
# VPXTOOL OBJ file
# numVerts: 156 numFaces: 270
o p12off
v -0.030378000810742378 -0.1069289967417717 0.04114000126719475
v -0.030378000810742378 -0.09278599917888641 0.04114000126719475
v -0.08695100247859955 -0.09278599917888641 0.04114000126719475
v -0.08695100247859955 -0.1069289967417717 0.04114000126719475
v -0.08695100247859955 -0.1069289967417717 0.07286199927330017
v -0.08695100247859955 -0.09278599917888641 0.07286199927330017
v -0.030378000810742378 -0.09278599917888641 0.07286199927330017
v -0.030378000810742378 -0.1069289967417717 0.07286199927330017
v -0.07452499866485596 -0.1069289967417717 0.028714999556541443
v -0.07452499866485596 -0.09278599917888641 0.028714999556541443
v -0.07452499866485596 -0.09278599917888641 0.08528800308704376
v -0.07452499866485596 -0.1069289967417717 0.08528800308704376
v -0.042803000658750534 -0.1069289967417717 0.08528800308704376
v -0.042803000658750534 -0.09278599917888641 0.08528800308704376
v -0.042803000658750534 -0.09278599917888641 0.028714999556541443
v -0.042803000658750534 -0.1069289967417717 0.028714999556541443
v -0.13074900209903717 -0.04419900104403496 -0.10267899930477142
v -0.13074900209903717 -0.0016420000465586782 -0.10267899930477142
v -0.12686799466609955 -0.0016420000465586782 -0.11338800191879272
v -0.12686799466609955 -0.04419900104403496 -0.11338800191879272
v 0.13083599507808685 -0.04419900104403496 -0.1034339964389801
v 0.13083599507808685 -0.0016420000465586782 -0.1034339964389801
v 0.13249200582504272 -0.0016420000465586782 -0.09160900115966797
v 0.13249200582504272 -0.04419900104403496 -0.09160900115966797
v -0.12686799466609955 -0.04419900104403496 -0.11338800191879272
v -0.12686799466609955 -0.0016420000465586782 -0.11338800191879272
v -0.12092799693346024 -0.0016420000465586782 -0.12171000242233276
v -0.12092799693346024 -0.04419900104403496 -0.12171000242233276
v -0.12092799693346024 -0.04419900104403496 -0.12171000242233276
v -0.12092799693346024 -0.0016420000465586782 -0.12171000242233276
v -0.11246500164270401 -0.0016420000465586782 -0.12741999328136444
v -0.11246500164270401 -0.04419900104403496 -0.12741999328136444
v -0.11246500164270401 -0.04419900104403496 -0.12741999328136444
v -0.11246500164270401 -0.0016420000465586782 -0.12741999328136444
v -0.10173600167036057 -0.0016420000465586782 -0.1310259997844696
v -0.10173600167036057 -0.04419900104403496 -0.1310259997844696
v 0.132532998919487 -0.04419900104403496 0.09157499670982361
v 0.132532998919487 -0.0016420000465586782 0.09157499670982361
v 0.1308639943599701 -0.0016420000465586782 0.10334700345993042
v 0.1308639943599701 -0.04419900104403496 0.10334700345993042
v 0.10174600034952164 -0.04419900104403496 0.131181001663208
v 0.10174600034952164 -0.0016420000465586782 0.131181001663208
v 0.08983200043439865 -0.0016420000465586782 0.1325089931488037
v 0.08983200043439865 -0.04419900104403496 0.1325089931488037
v 0.11252699792385101 -0.04419900104403496 0.12766599655151367
v 0.11252699792385101 -0.0016420000465586782 0.12766599655151367
v 0.10174600034952164 -0.0016420000465586782 0.131181001663208
v 0.10174600034952164 -0.04419900104403496 0.131181001663208
v -0.1307400017976761 -0.04419900104403496 0.10333999991416931
v -0.1307400017976761 -0.0016420000465586782 0.10333999991416931
v -0.1323850005865097 -0.0016420000465586782 0.09159299731254578
v -0.1323850005865097 -0.04419900104403496 0.09159299731254578
v 0.1210160031914711 -0.04419900104403496 0.12205100059509277
v 0.1210160031914711 -0.0016420000465586782 0.12205100059509277
v 0.11252699792385101 -0.0016420000465586782 0.12766599655151367
v 0.11252699792385101 -0.04419900104403496 0.12766599655151367
v 0.08983200043439865 -0.04419900104403496 -0.13243499398231506
v 0.08983200043439865 -0.0016420000465586782 -0.13243499398231506
v 0.10170900076627731 -0.0016420000465586782 -0.13116499781608582
v 0.10170900076627731 -0.04419900104403496 -0.13116499781608582
v -0.08986499905586243 -0.04419900104403496 -0.13243499398231506
v -0.08986499905586243 -0.0016420000465586782 -0.13243499398231506
v 0.08983200043439865 -0.0016420000465586782 -0.13243499398231506
v 0.08983200043439865 -0.04419900104403496 -0.13243499398231506
v 0.1269640028476715 -0.04419900104403496 0.11386299878358841
v 0.1269640028476715 -0.0016420000465586782 0.11386299878358841
v 0.1210160031914711 -0.0016420000465586782 0.12205100059509277
v 0.1210160031914711 -0.04419900104403496 0.12205100059509277
v 0.10170900076627731 -0.04419900104403496 -0.13116499781608582
v 0.10170900076627731 -0.0016420000465586782 -0.13116499781608582
v 0.11247099936008453 -0.0016420000465586782 -0.12770700454711914
v 0.11247099936008453 -0.04419900104403496 -0.12770700454711914
v -0.08986599743366241 -0.04419900104403496 0.13250300288200378
v -0.08986599743366241 -0.0016420000465586782 0.13250300288200378
v -0.10175400227308273 -0.0016420000465586782 0.13116799294948578
v -0.10175400227308273 -0.04419900104403496 0.13116799294948578
v 0.08983200043439865 -0.04419900104403496 0.1325089931488037
v 0.08983200043439865 -0.0016420000465586782 0.1325089931488037
v -0.08986599743366241 -0.0016420000465586782 0.13250300288200378
v -0.08986599743366241 -0.04419900104403496 0.13250300288200378
v 0.1308639943599701 -0.04419900104403496 0.10334700345993042
v 0.1308639943599701 -0.0016420000465586782 0.10334700345993042
v 0.1269640028476715 -0.0016420000465586782 0.11386299878358841
v 0.1269640028476715 -0.04419900104403496 0.11386299878358841
v 0.11247099936008453 -0.04419900104403496 -0.12770700454711914
v 0.11247099936008453 -0.0016420000465586782 -0.12770700454711914
v 0.12096100300550461 -0.0016420000465586782 -0.12213800102472305
v 0.12096100300550461 -0.04419900104403496 -0.12213800102472305
v -0.10175400227308273 -0.04419900104403496 0.13116799294948578
v -0.10175400227308273 -0.0016420000465586782 0.13116799294948578
v -0.11250200122594833 -0.0016420000465586782 0.12764300405979156
v -0.11250200122594833 -0.04419900104403496 0.12764300405979156
v -0.10173600167036057 -0.04419900104403496 -0.1310259997844696
v -0.10173600167036057 -0.0016420000465586782 -0.1310259997844696
v -0.08986499905586243 -0.0016420000465586782 -0.13243499398231506
v -0.08986499905586243 -0.04419900104403496 -0.13243499398231506
v 0.12096100300550461 -0.04419900104403496 -0.12213800102472305
v 0.12096100300550461 -0.0016420000465586782 -0.12213800102472305
v 0.12692199647426605 -0.0016420000465586782 -0.11397100239992142
v 0.12692199647426605 -0.04419900104403496 -0.11397100239992142
v -0.11250200122594833 -0.04419900104403496 0.12764300405979156
v -0.11250200122594833 -0.0016420000465586782 0.12764300405979156
v -0.12095700204372406 -0.0016420000465586782 0.12202499806880951
v -0.12095700204372406 -0.04419900104403496 0.12202499806880951
v 0.12692199647426605 -0.04419900104403496 -0.11397100239992142
v 0.12692199647426605 -0.0016420000465586782 -0.11397100239992142
v 0.13083599507808685 -0.0016420000465586782 -0.1034339964389801
v 0.13083599507808685 -0.04419900104403496 -0.1034339964389801
v -0.1323850005865097 -0.04419900104403496 0.09159299731254578
v -0.1323850005865097 -0.0016420000465586782 0.09159299731254578
v -0.1323850005865097 -0.0016420000465586782 -0.09070099890232086
v -0.1323850005865097 -0.04419900104403496 -0.09070099890232086
v -0.12095700204372406 -0.04419900104403496 0.12202499806880951
v -0.12095700204372406 -0.0016420000465586782 0.12202499806880951
v -0.1268710047006607 -0.0016420000465586782 0.11384200304746628
v -0.1268710047006607 -0.04419900104403496 0.11384200304746628
v -0.1323850005865097 -0.04419900104403496 -0.09070099890232086
v -0.1323850005865097 -0.0016420000465586782 -0.09070099890232086
v -0.13074900209903717 -0.0016420000465586782 -0.10267899930477142
v -0.13074900209903717 -0.04419900104403496 -0.10267899930477142
v 0.13249200582504272 -0.04419900104403496 -0.09160900115966797
v 0.13249200582504272 -0.0016420000465586782 -0.09160900115966797
v 0.132532998919487 -0.0016420000465586782 0.09157499670982361
v 0.132532998919487 -0.04419900104403496 0.09157499670982361
v -0.12092799693346024 -0.04419900104403496 -0.12171000242233276
v -0.11246500164270401 -0.04419900104403496 -0.12741999328136444
v -0.10173600167036057 -0.04419900104403496 -0.1310259997844696
v -0.08986499905586243 -0.04419900104403496 -0.13243499398231506
v 0.08983200043439865 -0.04419900104403496 -0.13243499398231506
v 0.10170900076627731 -0.04419900104403496 -0.13116499781608582
v 0.11247099936008453 -0.04419900104403496 -0.12770700454711914
v 0.12096100300550461 -0.04419900104403496 -0.12213800102472305
v 0.12692199647426605 -0.04419900104403496 -0.11397100239992142
v 0.13083599507808685 -0.04419900104403496 -0.1034339964389801
v 0.13249200582504272 -0.04419900104403496 -0.09160900115966797
v 0.132532998919487 -0.04419900104403496 0.09157499670982361
v 0.1308639943599701 -0.04419900104403496 0.10334700345993042
v 0.1269640028476715 -0.04419900104403496 0.11386299878358841
v 0.1210160031914711 -0.04419900104403496 0.12205100059509277
v 0.11252699792385101 -0.04419900104403496 0.12766599655151367
v 0.10174600034952164 -0.04419900104403496 0.131181001663208
v 0.08983200043439865 -0.04419900104403496 0.1325089931488037
v -0.08986599743366241 -0.04419900104403496 0.13250300288200378
v -0.10175400227308273 -0.04419900104403496 0.13116799294948578
v -0.11250200122594833 -0.04419900104403496 0.12764300405979156
v -0.12095700204372406 -0.04419900104403496 0.12202499806880951
v -0.1268710047006607 -0.04419900104403496 0.11384200304746628
v -0.1307400017976761 -0.04419900104403496 0.10333999991416931
v -0.1323850005865097 -0.04419900104403496 0.09159299731254578
v -0.1323850005865097 -0.04419900104403496 -0.09070099890232086
v -0.13074900209903717 -0.04419900104403496 -0.10267899930477142
v -0.12686799466609955 -0.04419900104403496 -0.11338800191879272
v -0.1268710047006607 -0.04419900104403496 0.11384200304746628
v -0.1268710047006607 -0.0016420000465586782 0.11384200304746628
v -0.1307400017976761 -0.0016420000465586782 0.10333999991416931
v -0.1307400017976761 -0.04419900104403496 0.10333999991416931
vt 0 1
vt 0 1
vt 0 1
vt 0 1
vt 0 1
vt 0 1
vt 0 1
vt 0 1
vt 0 1
vt 0 1
vt 0 1
vt 0 1
vt 0 1
vt 0 1
vt 0 1
vt 0 1
vt 0.057698000222444534 0.1526539921760559
vt 0.020176000893115997 0.12318700551986694
vt 0.03441699966788292 0.0838879942893982
vt 0.07082600146532059 0.11642801761627197
vt 0.942596971988678 0.1500999927520752
vt 0.9801449775695801 0.12041598558425903
vt 0.9862220287322998 0.16381001472473145
vt 0.9481989741325378 0.1901010274887085
vt 0.07082600146532059 0.11642801761627197
vt 0.03441699966788292 0.0838879942893982
vt 0.05621499940752983 0.05334597826004028
vt 0.09092000126838684 0.08827400207519531
vt 0.09092000126838684 0.08827400207519531
vt 0.05621499940752983 0.05334597826004028
vt 0.08727499842643738 0.03239297866821289
vt 0.11954999715089798 0.06896001100540161
vt 0.11954999715089798 0.06896001100540161
vt 0.08727499842643738 0.03239297866821289
vt 0.12664799392223358 0.019156992435455322
vt 0.15584400296211243 0.056758999824523926
vt 0.9483389854431152 0.809785008430481
vt 0.9863730072975159 0.8360649943351746
vt 0.9802489876747131 0.8792660236358643
vt 0.9426929950714111 0.849606990814209
vt 0.8441889882087708 0.9437649846076965
vt 0.8733879923820496 0.9814119935035706
vt 0.8296689987182617 0.9862849712371826
vt 0.8038880228996277 0.9482569694519043
vt 0.8806589841842651 0.9318739771842957
vt 0.9129520058631897 0.9685119986534119
vt 0.8733879923820496 0.9814119935035706
vt 0.8441889882087708 0.9437649846076965
vt 0.05772799998521805 0.8495839834213257
vt 0.020207999274134636 0.8792399764060974
vt 0.014170999638736248 0.8361300230026245
vt 0.05216300114989281 0.809844970703125
vt 0.9093790054321289 0.9128789901733398
vt 0.9441090226173401 0.9479050040245056
vt 0.9129520058631897 0.9685119986534119
vt 0.8806589841842651 0.9318739771842957
vt 0.8038880228996277 0.05199497938156128
vt 0.8296689987182617 0.013988971710205078
vt 0.8732540011405945 0.01864802837371826
vt 0.8440650105476379 0.05628997087478638
vt 0.19599999487400055 0.05199402570724487
vt 0.17021000385284424 0.013988018035888672
vt 0.8296689987182617 0.013988971710205078
vt 0.8038880228996277 0.05199497938156128
vt 0.9294989705085754 0.8851810097694397
vt 0.965936005115509 0.9178580045700073
vt 0.9441090226173401 0.9479050040245056
vt 0.9093790054321289 0.9128789901733398
vt 0.8440650105476379 0.05628997087478638
vt 0.8732540011405945 0.01864802837371826
vt 0.9127500057220459 0.03133702278137207
vt 0.8804730176925659 0.06798702478408813
vt 0.19599899649620056 0.9482380151748657
vt 0.17020900547504425 0.9862639904022217
vt 0.12658199667930603 0.981361985206604
vt 0.15578299760818481 0.9437190294265747
vt 0.8038880228996277 0.9482569694519043
vt 0.8296689987182617 0.9862849712371826
vt 0.17020900547504425 0.9862639904022217
vt 0.19599899649620056 0.9482380151748657
vt 0.9426929950714111 0.849606990814209
vt 0.9802489876747131 0.8792660236358643
vt 0.965936005115509 0.9178580045700073
vt 0.9294989705085754 0.8851810097694397
vt 0.8804730176925659 0.06798702478408813
vt 0.9127500057220459 0.03133702278137207
vt 0.9439049959182739 0.051775991916656494
vt 0.9091910123825073 0.08682698011398315
vt 0.15578299760818481 0.9437190294265747
vt 0.12658199667930603 0.981361985206604
vt 0.08713799715042114 0.9684270024299622
vt 0.1194240003824234 0.9317960143089294
vt 0.15584400296211243 0.056758999824523926
vt 0.12664799392223358 0.019156992435455322
vt 0.17021000385284424 0.013988018035888672
vt 0.19599999487400055 0.05199402570724487
vt 0.9091910123825073 0.08682698011398315
vt 0.9439049959182739 0.051775991916656494
vt 0.9657829999923706 0.08174800872802734
vt 0.9293580055236816 0.11445599794387817
vt 0.1194240003824234 0.9317960143089294
vt 0.08713799715042114 0.9684270024299622
vt 0.05610999837517738 0.9478089809417725
vt 0.09082300215959549 0.9127900004386902
vt 0.9293580055236816 0.11445599794387817
vt 0.9657829999923706 0.08174800872802734
vt 0.9801449775695801 0.12041598558425903
vt 0.942596971988678 0.1500999927520752
vt 0.05216300114989281 0.809844970703125
vt 0.014170999638736248 0.8361300230026245
vt 0.014171999879181385 0.16714298725128174
vt 0.052163999527692795 0.19317299127578735
vt 0.09082300215959549 0.9127900004386902
vt 0.05610999837517738 0.9478089809417725
vt 0.034405000507831573 0.9177809953689575
vt 0.07081499695777893 0.8851100206375122
vt 0.052163999527692795 0.19317299127578735
vt 0.014171999879181385 0.16714298725128174
vt 0.020176000893115997 0.12318700551986694
vt 0.057698000222444534 0.1526539921760559
vt 0.9481989741325378 0.1901010274887085
vt 0.9862220287322998 0.16381001472473145
vt 0.9863730072975159 0.8360649943351746
vt 0.9483389854431152 0.809785008430481
vt 0.09092000126838684 0.08827400207519531
vt 0.11954999715089798 0.06896001100540161
vt 0.15584400296211243 0.056758999824523926
vt 0.19599999487400055 0.05199402570724487
vt 0.8038880228996277 0.05199497938156128
vt 0.8440650105476379 0.05628997087478638
vt 0.8804730176925659 0.06798702478408813
vt 0.9091910123825073 0.08682698011398315
vt 0.9293580055236816 0.11445599794387817
vt 0.942596971988678 0.1500999927520752
vt 0.9481989741325378 0.1901010274887085
vt 0.9483389854431152 0.809785008430481
vt 0.9426929950714111 0.849606990814209
vt 0.9294989705085754 0.8851810097694397
vt 0.9093790054321289 0.9128789901733398
vt 0.8806589841842651 0.9318739771842957
vt 0.8441889882087708 0.9437649846076965
vt 0.8038880228996277 0.9482569694519043
vt 0.19599899649620056 0.9482380151748657
vt 0.15578299760818481 0.9437190294265747
vt 0.1194240003824234 0.9317960143089294
vt 0.09082300215959549 0.9127900004386902
vt 0.07081499695777893 0.8851100206375122
vt 0.05772799998521805 0.8495839834213257
vt 0.05216300114989281 0.809844970703125
vt 0.052163999527692795 0.19317299127578735
vt 0.057698000222444534 0.1526539921760559
vt 0.07082600146532059 0.11642801761627197
vt 0.07081499695777893 0.8851100206375122
vt 0.034405000507831573 0.9177809953689575
vt 0.020207999274134636 0.8792399764060974
vt 0.05772799998521805 0.8495839834213257
vn -0 -0 -1
vn -0 -0 -1
vn -0 -0 -1
vn -0 -0 -1
vn 0 0 1
vn 0 0 1
vn 0 0 1
vn 0 0 1
vn -1 0 0
vn -1 0 0
vn -1 0 0
vn -1 0 0
vn 1 0 0
vn 1 0 0
vn 1 0 0
vn 1 0 0
vn 0.9401999711990356 0 0.3407000005245209
vn 0.9401999711990356 0 0.3407000005245209
vn 0.9401999711990356 0 0.3407000005245209
vn 0.9401999711990356 0 0.3407000005245209
vn -0.9902999997138977 -0 0.1386999934911728
vn -0.9902999997138977 -0 0.1386999934911728
vn -0.9902999997138977 -0 0.1386999934911728
vn -0.9902999997138977 -0 0.1386999934911728
vn 0.8140000104904175 0 0.5809000134468079
vn 0.8140000104904175 0 0.5809000134468079
vn 0.8140000104904175 0 0.5809000134468079
vn 0.8140000104904175 0 0.5809000134468079
vn 0.5591999888420105 0 0.8289999961853027
vn 0.5591999888420105 0 0.8289999961853027
vn 0.5591999888420105 0 0.8289999961853027
vn 0.5591999888420105 0 0.8289999961853027
vn 0.31859999895095825 0 0.9478999972343445
vn 0.31859999895095825 0 0.9478999972343445
vn 0.31859999895095825 0 0.9478999972343445
vn 0.31859999895095825 0 0.9478999972343445
vn -0.9901000261306763 -0 -0.1404000073671341
vn -0.9901000261306763 -0 -0.1404000073671341
vn -0.9901000261306763 -0 -0.1404000073671341
vn -0.9901000261306763 -0 -0.1404000073671341
vn -0.11079999804496765 -0 -0.9937999844551086
vn -0.11079999804496765 -0 -0.9937999844551086
vn -0.11079999804496765 -0 -0.9937999844551086
vn -0.11079999804496765 -0 -0.9937999844551086
vn -0.3100000023841858 0 -0.9506999850273132
vn -0.3100000023841858 0 -0.9506999850273132
vn -0.3100000023841858 0 -0.9506999850273132
vn -0.3100000023841858 0 -0.9506999850273132
vn 0.9902999997138977 0 -0.1386999934911728
vn 0.9902999997138977 0 -0.1386999934911728
vn 0.9902999997138977 0 -0.1386999934911728
vn 0.9902999997138977 0 -0.1386999934911728
vn -0.5516999959945679 -0 -0.8341000080108643
vn -0.5516999959945679 -0 -0.8341000080108643
vn -0.5516999959945679 -0 -0.8341000080108643
vn -0.5516999959945679 -0 -0.8341000080108643
vn -0.1062999963760376 0 0.9943000078201294
vn -0.1062999963760376 0 0.9943000078201294
vn -0.1062999963760376 0 0.9943000078201294
vn -0.1062999963760376 0 0.9943000078201294
vn 0 0 1
vn 0 0 1
vn 0 0 1
vn 0 0 1
vn -0.8090999722480774 -0 -0.5877000093460083
vn -0.8090999722480774 -0 -0.5877000093460083
vn -0.8090999722480774 -0 -0.5877000093460083
vn -0.8090999722480774 -0 -0.5877000093460083
vn -0.3059000074863434 0 0.9520999789237976
vn -0.3059000074863434 0 0.9520999789237976
vn -0.3059000074863434 0 0.9520999789237976
vn -0.3059000074863434 0 0.9520999789237976
vn 0.11169999837875366 -0 -0.9937000274658203
vn 0.11169999837875366 -0 -0.9937000274658203
vn 0.11169999837875366 -0 -0.9937000274658203
vn 0.11169999837875366 -0 -0.9937000274658203
vn -0 -0 -1
vn -0 -0 -1
vn -0 -0 -1
vn -0 -0 -1
vn -0.9376000165939331 -0 -0.34769999980926514
vn -0.9376000165939331 -0 -0.34769999980926514
vn -0.9376000165939331 -0 -0.34769999980926514
vn -0.9376000165939331 -0 -0.34769999980926514
vn -0.5485000014305115 0 0.8360999822616577
vn -0.5485000014305115 0 0.8360999822616577
vn -0.5485000014305115 0 0.8360999822616577
vn -0.5485000014305115 0 0.8360999822616577
vn 0.311599999666214 0 -0.9502000212669373
vn 0.311599999666214 0 -0.9502000212669373
vn 0.311599999666214 0 -0.9502000212669373
vn 0.311599999666214 0 -0.9502000212669373
vn 0.11779999732971191 0 0.9929999709129333
vn 0.11779999732971191 0 0.9929999709129333
vn 0.11779999732971191 0 0.9929999709129333
vn 0.11779999732971191 0 0.9929999709129333
vn -0.807699978351593 0 0.5896000266075134
vn -0.807699978351593 0 0.5896000266075134
vn -0.807699978351593 0 0.5896000266075134
vn -0.807699978351593 0 0.5896000266075134
vn 0.5534999966621399 0 -0.8328999876976013
vn 0.5534999966621399 0 -0.8328999876976013
vn 0.5534999966621399 0 -0.8328999876976013
vn 0.5534999966621399 0 -0.8328999876976013
vn -0.9373999834060669 -0 0.3481999933719635
vn -0.9373999834060669 -0 0.3481999933719635
vn -0.9373999834060669 -0 0.3481999933719635
vn -0.9373999834060669 -0 0.3481999933719635
vn 1 0 0
vn 1 0 0
vn 1 0 0
vn 1 0 0
vn 0.8104000091552734 -0 -0.5857999920845032
vn 0.8104000091552734 -0 -0.5857999920845032
vn 0.8104000091552734 -0 -0.5857999920845032
vn 0.8104000091552734 -0 -0.5857999920845032
vn 0.9908000230789185 0 0.13529999554157257
vn 0.9908000230789185 0 0.13529999554157257
vn 0.9908000230789185 0 0.13529999554157257
vn 0.9908000230789185 0 0.13529999554157257
vn -1 0 0.00019999999494757503
vn -1 0 0.00019999999494757503
vn -1 0 0.00019999999494757503
vn -1 0 0.00019999999494757503
vn -0 1 -0
vn -0 1 -0
vn -0 1 -0
vn -0 1 -0
vn -0 1 -0
vn -0 1 -0
vn -0 1 -0
vn -0 1 -0
vn -0 1 -0
vn -0 1 -0
vn -0 1 -0
vn -0 1 -0
vn -0 1 -0
vn -0 1 -0
vn -0 1 -0
vn -0 1 -0
vn -0 1 -0
vn -0 1 -0
vn -0 1 -0
vn -0 1 -0
vn -0 1 -0
vn -0 1 -0
vn -0 1 -0
vn -0 1 -0
vn -0 1 -0
vn -0 1 -0
vn -0 1 -0
vn -0 1 -0
vn 0.9383999705314636 0 -0.3456999957561493
vn 0.9383999705314636 0 -0.3456999957561493
vn 0.9383999705314636 0 -0.3456999957561493
vn 0.9383999705314636 0 -0.3456999957561493
f 3/3/3 2/2/2 1/1/1
f 4/4/4 3/3/3 1/1/1
f 7/7/7 6/6/6 5/5/5
f 8/8/8 7/7/7 5/5/5
f 11/11/11 10/10/10 9/9/9
f 12/12/12 11/11/11 9/9/9
f 15/15/15 14/14/14 13/13/13
f 16/16/16 15/15/15 13/13/13
f 19/19/19 18/18/18 17/17/17
f 20/20/20 19/19/19 17/17/17
f 23/23/23 22/22/22 21/21/21
f 24/24/24 23/23/23 21/21/21
f 27/27/27 26/26/26 25/25/25
f 28/28/28 27/27/27 25/25/25
f 31/31/31 30/30/30 29/29/29
f 32/32/32 31/31/31 29/29/29
f 35/35/35 34/34/34 33/33/33
f 36/36/36 35/35/35 33/33/33
f 39/39/39 38/38/38 37/37/37
f 40/40/40 39/39/39 37/37/37
f 43/43/43 42/42/42 41/41/41
f 44/44/44 43/43/43 41/41/41
f 47/47/47 46/46/46 45/45/45
f 48/48/48 47/47/47 45/45/45
f 51/51/51 50/50/50 49/49/49
f 52/52/52 51/51/51 49/49/49
f 55/55/55 54/54/54 53/53/53
f 56/56/56 55/55/55 53/53/53
f 59/59/59 58/58/58 57/57/57
f 60/60/60 59/59/59 57/57/57
f 63/63/63 62/62/62 61/61/61
f 64/64/64 63/63/63 61/61/61
f 67/67/67 66/66/66 65/65/65
f 68/68/68 67/67/67 65/65/65
f 71/71/71 70/70/70 69/69/69
f 72/72/72 71/71/71 69/69/69
f 75/75/75 74/74/74 73/73/73
f 76/76/76 75/75/75 73/73/73
f 79/79/79 78/78/78 77/77/77
f 80/80/80 79/79/79 77/77/77
f 83/83/83 82/82/82 81/81/81
f 84/84/84 83/83/83 81/81/81
f 87/87/87 86/86/86 85/85/85
f 88/88/88 87/87/87 85/85/85
f 91/91/91 90/90/90 89/89/89
f 92/92/92 91/91/91 89/89/89
f 95/95/95 94/94/94 93/93/93
f 96/96/96 95/95/95 93/93/93
f 99/99/99 98/98/98 97/97/97
f 100/100/100 99/99/99 97/97/97
f 103/103/103 102/102/102 101/101/101
f 104/104/104 103/103/103 101/101/101
f 107/107/107 106/106/106 105/105/105
f 108/108/108 107/107/107 105/105/105
f 111/111/111 110/110/110 109/109/109
f 112/112/112 111/111/111 109/109/109
f 115/115/115 114/114/114 113/113/113
f 116/116/116 115/115/115 113/113/113
f 119/119/119 118/118/118 117/117/117
f 120/120/120 119/119/119 117/117/117
f 123/123/123 122/122/122 121/121/121
f 124/124/124 123/123/123 121/121/121
f 127/127/127 126/126/126 125/125/125
f 128/128/128 127/127/127 125/125/125
f 129/129/129 128/128/128 125/125/125
f 130/130/130 129/129/129 125/125/125
f 131/131/131 130/130/130 125/125/125
f 132/132/132 131/131/131 125/125/125
f 133/133/133 132/132/132 125/125/125
f 134/134/134 133/133/133 125/125/125
f 135/135/135 134/134/134 125/125/125
f 136/136/136 135/135/135 125/125/125
f 137/137/137 136/136/136 125/125/125
f 138/138/138 137/137/137 125/125/125
f 139/139/139 138/138/138 125/125/125
f 140/140/140 139/139/139 125/125/125
f 141/141/141 140/140/140 125/125/125
f 142/142/142 141/141/141 125/125/125
f 143/143/143 142/142/142 125/125/125
f 144/144/144 143/143/143 125/125/125
f 145/145/145 144/144/144 125/125/125
f 146/146/146 145/145/145 125/125/125
f 147/147/147 146/146/146 125/125/125
f 148/148/148 147/147/147 125/125/125
f 149/149/149 148/148/148 125/125/125
f 150/150/150 149/149/149 125/125/125
f 151/151/151 150/150/150 125/125/125
f 152/152/152 151/151/151 125/125/125
f 155/155/155 154/154/154 153/153/153
f 156/156/156 155/155/155 153/153/153
