# VPXTOOL table OBJ file
# VPXTOOL OBJ file
# numVerts: 116 numFaces: 198
o p2off
v -0.019138000905513763 -0.09012600034475327 0.02591799944639206
v -0.019138000905513763 -0.07820499688386917 0.02591799944639206
v -0.05477900058031082 -0.07820499688386917 0.02591799944639206
v -0.05477900058031082 -0.09012600034475327 0.02591799944639206
v -0.05477900058031082 -0.09012600034475327 0.045903000980615616
v -0.05477900058031082 -0.07820499688386917 0.045903000980615616
v -0.019138000905513763 -0.07820499688386917 0.045903000980615616
v -0.019138000905513763 -0.09012600034475327 0.045903000980615616
v -0.04695099964737892 -0.09012600034475327 0.01809000037610531
v -0.04695099964737892 -0.07820499688386917 0.01809000037610531
v -0.04695099964737892 -0.07820499688386917 0.05373099818825722
v -0.04695099964737892 -0.09012600034475327 0.05373099818825722
v -0.026965999975800514 -0.09012600034475327 0.05373099818825722
v -0.026965999975800514 -0.07820499688386917 0.05373099818825722
v -0.026965999975800514 -0.07820499688386917 0.01809000037610531
v -0.026965999975800514 -0.09012600034475327 0.01809000037610531
v 0.04039100185036659 -0.04985100030899048 0.1243090033531189
v 0.0768280029296875 -0.04985100030899048 0.10574399679899216
v 0.0768280029296875 -0.0020099999383091927 0.10574399679899216
v 0.04039100185036659 -0.0020099999383091927 0.1243090033531189
v 0.07682699710130692 -0.04985100030899048 -0.10574399679899216
v 0.04039100185036659 -0.04985100030899048 -0.1243090033531189
v 0.04039100185036659 -0.0020099999383091927 -0.1243090033531189
v 0.07682699710130692 -0.0020099999383091927 -0.10574399679899216
v 0.07682699710130692 -0.04985100030899048 -0.10574399679899216
v 0.07682699710130692 -0.0020099999383091927 -0.10574399679899216
v 0.10574399679899216 -0.0020099999383091927 -0.0768280029296875
v 0.10574399679899216 -0.04985100030899048 -0.0768280029296875
v -0.13070599734783173 -0.04985100030899048 0
v -0.1243090033531189 -0.04985100030899048 0.04039100185036659
v -0.1243090033531189 -0.0020099999383091927 0.04039100185036659
v -0.13070599734783173 -0.0020099999383091927 0
v 0.0768280029296875 -0.04985100030899048 0.10574399679899216
v 0.10574399679899216 -0.04985100030899048 0.07682699710130692
v 0.10574399679899216 -0.0020099999383091927 0.07682699710130692
v 0.0768280029296875 -0.0020099999383091927 0.10574399679899216
v 0.04039100185036659 -0.04985100030899048 -0.1243090033531189
v 0 -0.04985100030899048 -0.13070599734783173
v 0 -0.0020099999383091927 -0.13070599734783173
v 0.04039100185036659 -0.0020099999383091927 -0.1243090033531189
v -0.1243090033531189 -0.04985100030899048 0.04039100185036659
v -0.10574399679899216 -0.04985100030899048 0.07682699710130692
v -0.10574399679899216 -0.0020099999383091927 0.07682699710130692
v -0.1243090033531189 -0.0020099999383091927 0.04039100185036659
v 0.10574399679899216 -0.04985100030899048 0.07682699710130692
v 0.1243090033531189 -0.04985100030899048 0.040389999747276306
v 0.1243090033531189 -0.0020099999383091927 0.040389999747276306
v 0.10574399679899216 -0.0020099999383091927 0.07682699710130692
v 0 -0.04985100030899048 -0.13070599734783173
v -0.04039100185036659 -0.04985100030899048 -0.1243090033531189
v -0.04039100185036659 -0.0020099999383091927 -0.1243090033531189
v 0 -0.0020099999383091927 -0.13070599734783173
v -0.10574399679899216 -0.04985100030899048 0.07682699710130692
v -0.07682699710130692 -0.04985100030899048 0.10574399679899216
v -0.07682699710130692 -0.0020099999383091927 0.10574399679899216
v -0.10574399679899216 -0.0020099999383091927 0.07682699710130692
v 0.1243090033531189 -0.04985100030899048 0.040389999747276306
v 0.1307069957256317 -0.04985100030899048 -0
v 0.1307069957256317 -0.0020099999383091927 -0
v 0.1243090033531189 -0.0020099999383091927 0.040389999747276306
v -0.04039100185036659 -0.04985100030899048 -0.1243090033531189
v -0.07682699710130692 -0.04985100030899048 -0.10574399679899216
v -0.07682699710130692 -0.0020099999383091927 -0.10574399679899216
v -0.04039100185036659 -0.0020099999383091927 -0.1243090033531189
v -0.07682699710130692 -0.04985100030899048 0.10574399679899216
v -0.040389999747276306 -0.04985100030899048 0.1243090033531189
v -0.040389999747276306 -0.0020099999383091927 0.1243090033531189
v -0.07682699710130692 -0.0020099999383091927 0.10574399679899216
v 0.1307069957256317 -0.04985100030899048 -0
v 0.1243090033531189 -0.04985100030899048 -0.04039100185036659
v 0.1243090033531189 -0.0020099999383091927 -0.04039100185036659
v 0.1307069957256317 -0.0020099999383091927 -0
v -0.07682699710130692 -0.04985100030899048 -0.10574399679899216
v -0.10574399679899216 -0.04985100030899048 -0.07682699710130692
v -0.10574399679899216 -0.0020099999383091927 -0.07682699710130692
v -0.07682699710130692 -0.0020099999383091927 -0.10574399679899216
v -0.040389999747276306 -0.04985100030899048 0.1243090033531189
v 0 -0.04985100030899048 0.13070599734783173
v 0 -0.0020099999383091927 0.13070599734783173
v -0.040389999747276306 -0.0020099999383091927 0.1243090033531189
v 0.1243090033531189 -0.04985100030899048 -0.04039100185036659
v 0.10574399679899216 -0.04985100030899048 -0.0768280029296875
v 0.10574399679899216 -0.0020099999383091927 -0.0768280029296875
v 0.1243090033531189 -0.0020099999383091927 -0.04039100185036659
v -0.10574399679899216 -0.04985100030899048 -0.07682699710130692
v -0.1243090033531189 -0.04985100030899048 -0.040389999747276306
v -0.1243090033531189 -0.0020099999383091927 -0.040389999747276306
v -0.10574399679899216 -0.0020099999383091927 -0.07682699710130692
v 0 -0.04985100030899048 0.13070599734783173
v 0.04039100185036659 -0.04985100030899048 0.1243090033531189
v 0.04039100185036659 -0.0020099999383091927 0.1243090033531189
v 0 -0.0020099999383091927 0.13070599734783173
v 0.10574399679899216 -0.04985100030899048 -0.0768280029296875
v 0.1243090033531189 -0.04985100030899048 -0.04039100185036659
v 0.1307069957256317 -0.04985100030899048 -0
v 0.1243090033531189 -0.04985100030899048 0.040389999747276306
v 0.10574399679899216 -0.04985100030899048 0.07682699710130692
v 0.0768280029296875 -0.04985100030899048 0.10574399679899216
v 0.04039100185036659 -0.04985100030899048 0.1243090033531189
v 0 -0.04985100030899048 0.13070599734783173
v -0.040389999747276306 -0.04985100030899048 0.1243090033531189
v -0.07682699710130692 -0.04985100030899048 0.10574399679899216
v -0.10574399679899216 -0.04985100030899048 0.07682699710130692
v -0.1243090033531189 -0.04985100030899048 0.04039100185036659
v -0.13070599734783173 -0.04985100030899048 0
v -0.1243090033531189 -0.04985100030899048 -0.040389999747276306
v -0.10574399679899216 -0.04985100030899048 -0.07682699710130692
v -0.07682699710130692 -0.04985100030899048 -0.10574399679899216
v -0.04039100185036659 -0.04985100030899048 -0.1243090033531189
v 0 -0.04985100030899048 -0.13070599734783173
v 0.04039100185036659 -0.04985100030899048 -0.1243090033531189
v 0.07682699710130692 -0.04985100030899048 -0.10574399679899216
v -0.13070599734783173 -0.04985100030899048 0
v -0.13070599734783173 -0.0020099999383091927 0
v -0.1243090033531189 -0.0020099999383091927 -0.040389999747276306
v -0.1243090033531189 -0.04985100030899048 -0.040389999747276306
vt 0 1
vt 0 1
vt 0 1
vt 0 1
vt 0 1
vt 0 1
vt 0 1
vt 0 1
vt 0 1
vt 0 1
vt 0 1
vt 0 1
vt 0 1
vt 0 1
vt 0 1
vt 0 1
vt 0.6433209776878357 0.9410939812660217
vt 0.7726119756698608 0.8752170205116272
vt 0.7890629768371582 0.8978599905967712
vt 0.6519700288772583 0.9677129983901978
vt 0.7726119756698608 0.1247829794883728
vt 0.6433200240135193 0.05890601873397827
vt 0.6519690155982971 0.032287001609802246
vt 0.7890629768371582 0.10213899612426758
vt 0.7726119756698608 0.1247829794883728
vt 0.7890629768371582 0.10213899612426758
vt 0.8978599905967712 0.2109370231628418
vt 0.8752170205116272 0.22738802433013916
vt 0.03620599955320358 0.5
vt 0.05890500172972679 0.6433210372924805
vt 0.032287001609802246 0.6519689559936523
vt 0.008217000402510166 0.5
vt 0.7726119756698608 0.8752170205116272
vt 0.8752179741859436 0.7726110219955444
vt 0.8978610038757324 0.7890620231628418
vt 0.7890629768371582 0.8978599905967712
vt 0.6433200240135193 0.05890601873397827
vt 0.5 0.03620600700378418
vt 0.5 0.0082169771194458
vt 0.6519690155982971 0.032287001609802246
vt 0.05890500172972679 0.6433210372924805
vt 0.1247830018401146 0.7726119756698608
vt 0.10213900357484818 0.7890629768371582
vt 0.032287001609802246 0.6519689559936523
vt 0.8752179741859436 0.7726110219955444
vt 0.9410949945449829 0.6433190107345581
vt 0.9677140116691589 0.6519680023193359
vt 0.8978610038757324 0.7890620231628418
vt 0.5 0.03620600700378418
vt 0.3566800057888031 0.05890601873397827
vt 0.34803101420402527 0.032287001609802246
vt 0.5 0.0082169771194458
vt 0.1247830018401146 0.7726119756698608
vt 0.22738899290561676 0.8752170205116272
vt 0.2109380066394806 0.8978610038757324
vt 0.10213900357484818 0.7890629768371582
vt 0.9410949945449829 0.6433190107345581
vt 0.963795006275177 0.4999989867210388
vt 0.9917830228805542 0.4999989867210388
vt 0.9677140116691589 0.6519680023193359
vt 0.3566800057888031 0.05890601873397827
vt 0.22738799452781677 0.1247829794883728
vt 0.2109369933605194 0.10213899612426758
vt 0.34803101420402527 0.032287001609802246
vt 0.22738899290561676 0.8752170205116272
vt 0.3566800057888031 0.9410939812660217
vt 0.34803101420402527 0.9677129983901978
vt 0.2109380066394806 0.8978610038757324
vt 0.963795006275177 0.4999989867210388
vt 0.9410949945449829 0.3566790223121643
vt 0.9677129983901978 0.3480299711227417
vt 0.9917830228805542 0.4999989867210388
vt 0.22738799452781677 0.1247829794883728
vt 0.1247820034623146 0.22738897800445557
vt 0.10213900357484818 0.2109379768371582
vt 0.2109369933605194 0.10213899612426758
vt 0.3566800057888031 0.9410939812660217
vt 0.5000010132789612 0.9637939929962158
vt 0.5000010132789612 0.9917830228805542
vt 0.34803101420402527 0.9677129983901978
vt 0.9410949945449829 0.3566790223121643
vt 0.8752170205116272 0.22738802433013916
vt 0.8978599905967712 0.2109370231628418
vt 0.9677129983901978 0.3480299711227417
vt 0.1247820034623146 0.22738897800445557
vt 0.05890500172972679 0.3566799759864807
vt 0.03228599950671196 0.3480309844017029
vt 0.10213900357484818 0.2109379768371582
vt 0.5000010132789612 0.9637939929962158
vt 0.6433209776878357 0.9410939812660217
vt 0.6519700288772583 0.9677129983901978
vt 0.5000010132789612 0.9917830228805542
vt 0.8752170205116272 0.22738802433013916
vt 0.9410949945449829 0.3566790223121643
vt 0.963795006275177 0.4999989867210388
vt 0.9410949945449829 0.6433190107345581
vt 0.8752179741859436 0.7726110219955444
vt 0.7726119756698608 0.8752170205116272
vt 0.6433209776878357 0.9410939812660217
vt 0.5000010132789612 0.9637939929962158
vt 0.3566800057888031 0.9410939812660217
vt 0.22738899290561676 0.8752170205116272
vt 0.1247830018401146 0.7726119756698608
vt 0.05890500172972679 0.6433210372924805
vt 0.03620599955320358 0.5
vt 0.05890500172972679 0.3566799759864807
vt 0.1247820034623146 0.22738897800445557
vt 0.22738799452781677 0.1247829794883728
vt 0.3566800057888031 0.05890601873397827
vt 0.5 0.03620600700378418
vt 0.6433200240135193 0.05890601873397827
vt 0.7726119756698608 0.1247829794883728
vt 0.03620599955320358 0.5
vt 0.008217000402510166 0.5
vt 0.03228599950671196 0.3480309844017029
vt 0.05890500172972679 0.3566799759864807
vn -0 -0 -1
vn -0 -0 -1
vn -0 -0 -1
vn -0 -0 -1
vn 0 0 1
vn 0 0 1
vn 0 0 1
vn 0 0 1
vn -1 -0 0
vn -1 -0 0
vn -1 -0 0
vn -1 -0 0
vn 1 0 0
vn 1 0 0
vn 1 0 0
vn 1 0 0
vn -0.45399999618530273 0 -0.890999972820282
vn -0.45399999618530273 0 -0.890999972820282
vn -0.45399999618530273 0 -0.890999972820282
vn -0.45399999618530273 0 -0.890999972820282
vn -0.45399999618530273 0 0.890999972820282
vn -0.45399999618530273 0 0.890999972820282
vn -0.45399999618530273 0 0.890999972820282
vn -0.45399999618530273 0 0.890999972820282
vn -0.707099974155426 0 0.707099974155426
vn -0.707099974155426 0 0.707099974155426
vn -0.707099974155426 0 0.707099974155426
vn -0.707099974155426 0 0.707099974155426
vn 0.9876999855041504 0 -0.15639999508857727
vn 0.9876999855041504 0 -0.15639999508857727
vn 0.9876999855041504 0 -0.15639999508857727
vn 0.9876999855041504 0 -0.15639999508857727
vn -0.707099974155426 0 -0.707099974155426
vn -0.707099974155426 0 -0.707099974155426
vn -0.707099974155426 0 -0.707099974155426
vn -0.707099974155426 0 -0.707099974155426
vn -0.15639999508857727 0 0.9876999855041504
vn -0.15639999508857727 0 0.9876999855041504
vn -0.15639999508857727 0 0.9876999855041504
vn -0.15639999508857727 0 0.9876999855041504
vn 0.890999972820282 0 -0.45399999618530273
vn 0.890999972820282 0 -0.45399999618530273
vn 0.890999972820282 0 -0.45399999618530273
vn 0.890999972820282 0 -0.45399999618530273
vn -0.890999972820282 0 -0.45399999618530273
vn -0.890999972820282 0 -0.45399999618530273
vn -0.890999972820282 0 -0.45399999618530273
vn -0.890999972820282 0 -0.45399999618530273
vn 0.15639999508857727 0 0.9876999855041504
vn 0.15639999508857727 0 0.9876999855041504
vn 0.15639999508857727 0 0.9876999855041504
vn 0.15639999508857727 0 0.9876999855041504
vn 0.707099974155426 0 -0.707099974155426
vn 0.707099974155426 0 -0.707099974155426
vn 0.707099974155426 0 -0.707099974155426
vn 0.707099974155426 0 -0.707099974155426
vn -0.9876999855041504 0 -0.15639999508857727
vn -0.9876999855041504 0 -0.15639999508857727
vn -0.9876999855041504 0 -0.15639999508857727
vn -0.9876999855041504 0 -0.15639999508857727
vn 0.45399999618530273 0 0.890999972820282
vn 0.45399999618530273 0 0.890999972820282
vn 0.45399999618530273 0 0.890999972820282
vn 0.45399999618530273 0 0.890999972820282
vn 0.45399999618530273 0 -0.890999972820282
vn 0.45399999618530273 0 -0.890999972820282
vn 0.45399999618530273 0 -0.890999972820282
vn 0.45399999618530273 0 -0.890999972820282
vn -0.9876999855041504 0 0.15639999508857727
vn -0.9876999855041504 0 0.15639999508857727
vn -0.9876999855041504 0 0.15639999508857727
vn -0.9876999855041504 0 0.15639999508857727
vn 0.707099974155426 0 0.707099974155426
vn 0.707099974155426 0 0.707099974155426
vn 0.707099974155426 0 0.707099974155426
vn 0.707099974155426 0 0.707099974155426
vn 0.15639999508857727 0 -0.9876999855041504
vn 0.15639999508857727 0 -0.9876999855041504
vn 0.15639999508857727 0 -0.9876999855041504
vn 0.15639999508857727 0 -0.9876999855041504
vn -0.890999972820282 0 0.45399999618530273
vn -0.890999972820282 0 0.45399999618530273
vn -0.890999972820282 0 0.45399999618530273
vn -0.890999972820282 0 0.45399999618530273
vn 0.890999972820282 0 0.45399999618530273
vn 0.890999972820282 0 0.45399999618530273
vn 0.890999972820282 0 0.45399999618530273
vn 0.890999972820282 0 0.45399999618530273
vn -0.15639999508857727 0 -0.9876999855041504
vn -0.15639999508857727 0 -0.9876999855041504
vn -0.15639999508857727 0 -0.9876999855041504
vn -0.15639999508857727 0 -0.9876999855041504
vn 0 1 0
vn 0 1 0
vn 0 1 0
vn 0 1 0
vn 0 1 0
vn 0 1 0
vn 0 1 0
vn 0 1 0
vn 0 1 0
vn 0 1 0
vn 0 1 0
vn 0 1 0
vn 0 1 0
vn 0 1 0
vn 0 1 0
vn 0 1 0
vn 0 1 0
vn 0 1 0
vn 0 1 0
vn 0 1 0
vn 0.9876999855041504 0 0.15639999508857727
vn 0.9876999855041504 0 0.15639999508857727
vn 0.9876999855041504 0 0.15639999508857727
vn 0.9876999855041504 0 0.15639999508857727
f 3/3/3 2/2/2 1/1/1
f 4/4/4 3/3/3 1/1/1
f 7/7/7 6/6/6 5/5/5
f 8/8/8 7/7/7 5/5/5
f 11/11/11 10/10/10 9/9/9
f 12/12/12 11/11/11 9/9/9
f 15/15/15 14/14/14 13/13/13
f 16/16/16 15/15/15 13/13/13
f 19/19/19 18/18/18 17/17/17
f 20/20/20 19/19/19 17/17/17
f 23/23/23 22/22/22 21/21/21
f 24/24/24 23/23/23 21/21/21
f 27/27/27 26/26/26 25/25/25
f 28/28/28 27/27/27 25/25/25
f 31/31/31 30/30/30 29/29/29
f 32/32/32 31/31/31 29/29/29
f 35/35/35 34/34/34 33/33/33
f 36/36/36 35/35/35 33/33/33
f 39/39/39 38/38/38 37/37/37
f 40/40/40 39/39/39 37/37/37
f 43/43/43 42/42/42 41/41/41
f 44/44/44 43/43/43 41/41/41
f 47/47/47 46/46/46 45/45/45
f 48/48/48 47/47/47 45/45/45
f 51/51/51 50/50/50 49/49/49
f 52/52/52 51/51/51 49/49/49
f 55/55/55 54/54/54 53/53/53
f 56/56/56 55/55/55 53/53/53
f 59/59/59 58/58/58 57/57/57
f 60/60/60 59/59/59 57/57/57
f 63/63/63 62/62/62 61/61/61
f 64/64/64 63/63/63 61/61/61
f 67/67/67 66/66/66 65/65/65
f 68/68/68 67/67/67 65/65/65
f 71/71/71 70/70/70 69/69/69
f 72/72/72 71/71/71 69/69/69
f 75/75/75 74/74/74 73/73/73
f 76/76/76 75/75/75 73/73/73
f 79/79/79 78/78/78 77/77/77
f 80/80/80 79/79/79 77/77/77
f 83/83/83 82/82/82 81/81/81
f 84/84/84 83/83/83 81/81/81
f 87/87/87 86/86/86 85/85/85
f 88/88/88 87/87/87 85/85/85
f 91/91/91 90/90/90 89/89/89
f 92/92/92 91/91/91 89/89/89
f 95/95/95 94/94/94 93/93/93
f 96/96/96 95/95/95 93/93/93
f 97/97/97 96/96/96 93/93/93
f 98/98/98 97/97/97 93/93/93
f 99/99/99 98/98/98 93/93/93
f 100/100/100 99/99/99 93/93/93
f 101/101/101 100/100/100 93/93/93
f 102/102/102 101/101/101 93/93/93
f 103/103/103 102/102/102 93/93/93
f 104/104/104 103/103/103 93/93/93
f 105/105/105 104/104/104 93/93/93
f 106/106/106 105/105/105 93/93/93
f 107/107/107 106/106/106 93/93/93
f 108/108/108 107/107/107 93/93/93
f 109/109/109 108/108/108 93/93/93
f 110/110/110 109/109/109 93/93/93
f 111/111/111 110/110/110 93/93/93
f 112/112/112 111/111/111 93/93/93
f 115/115/115 114/114/114 113/113/113
f 116/116/116 115/115/115 113/113/113
