# VPXTOOL table OBJ file
# VPXTOOL OBJ file
# numVerts: 88 numFaces: 192
o sw1p
v -0.08453299850225449 0.03892400115728378 -0.2139900028705597
v -0.08453299850225449 0.021630000323057175 -0.2139900028705597
v -0.08453299850225449 0.021630000323057175 -0.18806999921798706
v -0.10442300140857697 -0.03889700025320053 -0.20534999668598175
v -0.10442300140857697 0.021630000323057175 -0.18806999921798706
v -0.10442300140857697 0.021630000323057175 -0.015270000323653221
v -0.10442300140857697 -0.03889700025320053 -0.015270000323653221
v 0.10442300140857697 -0.047543998807668686 -0.23127000033855438
v 0.10442300140857697 -0.047543998807668686 -0.2139900028705597
v 0.10442300140857697 0.03892400115728378 -0.2139900028705597
v 0.10442300140857697 0.03892400115728378 -0.23127000033855438
v 0.10442300140857697 0.021630000323057175 -0.18806999921798706
v 0.10442300140857697 0.021630000323057175 -0.015270000323653221
v 0.08453299850225449 0.021630000323057175 -0.18806999921798706
v -0.10442300140857697 0.03892400115728378 -0.2139900028705597
v -0.08453299850225449 0.03892400115728378 -0.2139900028705597
v -0.08453299850225449 0.021630000323057175 -0.18806999921798706
v -0.10442300140857697 0.021630000323057175 -0.18806999921798706
v 0.10442300140857697 0.03892400115728378 -0.23127000033855438
v 0.10442300140857697 0.03892400115728378 -0.2139900028705597
v 0.08453299850225449 0.03892400115728378 -0.2139900028705597
v -0.10442300140857697 0.03892400115728378 -0.23127000033855438
v -0.08453299850225449 0.021630000323057175 -0.2139900028705597
v 0.08453299850225449 0.021630000323057175 -0.2139900028705597
v -0.10442300140857697 0.021630000323057175 -0.015270000323653221
v 0.08453299850225449 0.021630000323057175 -0.18806999921798706
v 0.08453299850225449 0.021630000323057175 -0.2139900028705597
v 0.08453299850225449 0.03892400115728378 -0.2139900028705597
v -0.10442300140857697 -0.01295700017362833 0.08840999752283096
v 0.10442300140857697 -0.01295700017362833 0.08840999752283096
v 0.10442300140857697 -0.01295700017362833 0.0970500037074089
v -0.10442300140857697 -0.01295700017362833 0.0970500037074089
v 0.08453299850225449 0.021630000323057175 -0.2139900028705597
v -0.08453299850225449 0.021630000323057175 -0.2139900028705597
v -0.08453299850225449 0.03892400115728378 -0.2139900028705597
v 0.08453299850225449 0.03892400115728378 -0.2139900028705597
v -0.01988999918103218 0.016997000202536583 0.08840999752283096
v -0.03445100039243698 0.004337000194936991 0.08840999752283096
v -0.03445100039243698 0.004337000194936991 0.04521000012755394
v -0.01988999918103218 0.016997000202536583 0.04521000012755394
v -0 0.021630000323057175 0.08840999752283096
v -0 0.021630000323057175 0.04521000012755394
v 0.01988999918103218 0.016997000202536583 0.08840999752283096
v 0.01988999918103218 0.016997000202536583 0.04521000012755394
v 0.03445100039243698 0.004337000194936991 0.08840999752283096
v 0.03445100039243698 0.004337000194936991 0.04521000012755394
v 0.10442300140857697 -0.03889700025320053 -0.015270000323653221
v -0.10442300140857697 -0.03889700025320053 -0.015270000323653221
v -0.10442300140857697 -0.03889700025320053 0.0970500037074089
v 0.10442300140857697 -0.03889700025320053 0.0970500037074089
v -0.10442300140857697 -0.047543998807668686 -0.2139900028705597
v -0.10442300140857697 0.03892400115728378 -0.2139900028705597
v 0.10442300140857697 -0.03889700025320053 -0.015270000323653221
v 0.10442300140857697 0.021630000323057175 -0.015270000323653221
v 0.10442300140857697 0.021630000323057175 -0.18806999921798706
v 0.10442300140857697 -0.03889700025320053 -0.20534999668598175
v -0.10442300140857697 0.021630000323057175 0.04521000012755394
v -0.10442300140857697 -0.01295700017362833 0.08840999752283096
v -0.10442300140857697 -0.03889700025320053 0.0970500037074089
v -0.10442300140857697 -0.01295700017362833 0.0970500037074089
v 0.10442300140857697 0.021630000323057175 0.04521000012755394
v 0.10442300140857697 -0.01295700017362833 0.08840999752283096
v -0.10442300140857697 -0.01295700017362833 0.08840999752283096
v -0.10442300140857697 0.021630000323057175 0.04521000012755394
v 0.10442300140857697 0.021630000323057175 0.04521000012755394
v 0.10442300140857697 -0.01295700017362833 0.08840999752283096
v 0.10442300140857697 -0.03889700025320053 0.0970500037074089
v 0.10442300140857697 -0.01295700017362833 0.0970500037074089
v -0.10442300140857697 -0.047543998807668686 -0.23127000033855438
v -0.10442300140857697 0.03892400115728378 -0.23127000033855438
v 0.03977999836206436 -0.01295700017362833 0.08840999752283096
v 0.10442300140857697 -0.03889700025320053 -0.20534999668598175
v -0.10442300140857697 -0.03889700025320053 -0.20534999668598175
v 0.10442300140857697 -0.047543998807668686 -0.2139900028705597
v -0.10442300140857697 -0.047543998807668686 -0.2139900028705597
v -0.10442300140857697 -0.03889700025320053 -0.20534999668598175
v 0.10442300140857697 -0.03889700025320053 -0.20534999668598175
v 0.10442300140857697 -0.047543998807668686 -0.23127000033855438
v -0.10442300140857697 -0.047543998807668686 -0.23127000033855438
v -0.10442300140857697 -0.047543998807668686 -0.2139900028705597
v 0.10442300140857697 -0.047543998807668686 -0.2139900028705597
v 0.10442300140857697 0.03892400115728378 -0.23127000033855438
v -0.10442300140857697 0.03892400115728378 -0.23127000033855438
v -0.10442300140857697 -0.047543998807668686 -0.23127000033855438
v 0.10442300140857697 -0.047543998807668686 -0.23127000033855438
v -0.03977999836206436 -0.01295700017362833 0.08840999752283096
v 0.10442300140857697 0.021630000323057175 0.04521000012755394
v -0.10442300140857697 0.021630000323057175 0.04521000012755394
vt 0.07893200218677521 0.25724899768829346
vt 0.09863799810409546 0.27477097511291504
vt 0.07893200218677521 0.3329920172691345
vt 1.1725749969482422 0.2847210168838501
vt 1.0519360303878784 0.3329920172691345
vt 1.0519360303878784 0.7285460233688354
vt 1.1725749969482422 0.7285460233688354
vt 0.9993289709091187 0.22662001848220825
vt 0.9993289709091187 0.25724899768829346
vt 0.8278869986534119 0.25724899768829346
vt 0.8278869986534119 0.22662001848220825
vt 0.8278869986534119 0.3329920172691345
vt 0.8278869986534119 0.7285460233688354
vt 0.748960018157959 0.3329920172691345
vt 0.0001049999991664663 0.25724899768829346
vt 0.07893200218677521 0.25724899768829346
vt 0.07893200218677521 0.3329920172691345
vt 0.0001049999991664663 0.3329920172691345
vt 0.8278869986534119 0.22662001848220825
vt 0.8278869986534119 0.25724899768829346
vt 0.748960018157959 0.25724899768829346
vt -0.00003199999991920777 0.22662001848220825
vt 0.09863799810409546 0.27477097511291504
vt 0.7292529940605164 0.27477097511291504
vt 0.0001049999991664663 0.7285460233688354
vt 0.748960018157959 0.3329920172691345
vt 0.7292529940605164 0.27477097511291504
vt 0.748960018157959 0.25724899768829346
vt 0.0001049999991664663 0.9805259704589844
vt 0.8278869986534119 0.9805259704589844
vt 0.8278869986534119 0.999862015247345
vt 0.0001049999991664663 0.999862015247345
vt 0.7292529940605164 0.27477097511291504
vt 0.09863799810409546 0.27477097511291504
vt 0.07893200218677521 0.25724899768829346
vt 0.748960018157959 0.25724899768829346
vt 0.33511900901794434 0.9805259704589844
vt 0.2774139940738678 0.9805259704589844
vt 0.2774139940738678 0.8745120167732239
vt 0.33511900901794434 0.8745120167732239
vt 0.4139460027217865 0.9805259704589844
vt 0.4139460027217865 0.8745120167732239
vt 0.49277299642562866 0.9805259704589844
vt 0.49277299642562866 0.8745120167732239
vt 0.5504779815673828 0.9805259704589844
vt 0.5504779815673828 0.8745120167732239
vt 0.8383299708366394 0.14633899927139282
vt 0.998320996761322 0.14633899927139282
vt 0.998320996761322 0.2160559892654419
vt 0.8383299708366394 0.2160559892654419
vt 1.1888090372085571 0.25724899768829346
vt 1.0173670053482056 0.25724899768829346
vt 0.9830949902534485 0.7285460233688354
vt 0.8624560236930847 0.7285460233688354
vt 0.8624560236930847 0.3329920172691345
vt 0.9830949902534485 0.2847210168838501
vt 1.0519360303878784 0.8745120167732239
vt 1.120182991027832 0.9805259704589844
vt 1.1718850135803223 0.9997850060462952
vt 1.120182991027832 0.9997850060462952
vt 0.8278869986534119 0.8745120167732239
vt 0.8278869986534119 0.9805259704589844
vt 0.0001049999991664663 0.9805259704589844
vt 0.0001049999991664663 0.8745120167732239
vt 0.8624560236930847 0.8745120167732239
vt 0.9307029843330383 0.9805259704589844
vt 0.9824050068855286 0.9997850060462952
vt 0.9307029843330383 0.9997850060462952
vt 1.1888090372085571 0.22662001848220825
vt 1.0173670053482056 0.22662001848220825
vt 0.5716000199317932 0.9805259704589844
vt 0.8383299708366394 0.01762998104095459
vt 0.998320996761322 0.01762998104095459
vt 0.8383299708366394 0.012266993522644043
vt 0.998320996761322 0.012266993522644043
vt 0.998320996761322 0.01762998104095459
vt 0.8383299708366394 0.01762998104095459
vt 0.8383299708366394 0.0015410184860229492
vt 0.998320996761322 0.0015410184860229492
vt 0.998320996761322 0.012266993522644043
vt 0.8383299708366394 0.012266993522644043
vt 0.8278869986534119 0.22662001848220825
vt -0.00003199999991920777 0.22662001848220825
vt -0.00003199999991920777 0.00014001131057739258
vt 0.8278869986534119 0.00014001131057739258
vt 0.2562919855117798 0.9805259704589844
vt 0.8278869986534119 0.8745120167732239
vt 0.0001049999991664663 0.8745120167732239
vn 1 0 -0
vn 1 0 -0
vn 1 0 -0
vn -1 0 0
vn -1 0 0
vn -1 0 0
vn -1 0 0
vn 1 0 -0
vn 1 0 -0
vn 1 0 -0
vn 1 0 -0
vn 0 0.9570000171661377 0.28999999165534973
vn 0 1 0
vn 0 0.9897000193595886 0.14329999685287476
vn 0 0.9570000171661377 0.28999999165534973
vn 0 0.9812999963760376 0.1923000067472458
vn 0 0.9897000193595886 0.14329999685287476
vn 0 0.9570000171661377 0.28999999165534973
vn 0 1 0
vn 0 0.9570000171661377 0.28999999165534973
vn 0 0.9812999963760376 0.1923000067472458
vn 0 1 0
vn 0 1 0
vn 0 1 0
vn 0 1 0
vn -1 0 0
vn -1 0 0
vn -1 0 0
vn 0 1 0
vn 0 1 0
vn 0 1 0
vn 0 1 0
vn 0 0 1
vn 0 0 1
vn 0 0 1
vn 0 0 1
vn -0.45489999651908875 0.890500009059906 0
vn -0.838100016117096 0.5454999804496765 0
vn -0.7346000075340271 0.6784999966621399 0
vn -0.45489999651908875 0.890500009059906 0
vn 0 1 0
vn 0 1 0
vn 0.45489999651908875 0.890500009059906 -0
vn 0.45489999651908875 0.890500009059906 -0
vn 0.838100016117096 0.5454999804496765 -0
vn 0.7346000075340271 0.6784999966621399 -0
vn 0 -1 0
vn 0 -1 0
vn 0 -1 0
vn 0 -1 0
vn -1 0 0
vn -1 0 0
vn 1 0 -0
vn 1 0 -0
vn 1 0 -0
vn 1 0 -0
vn -1 0 0
vn -1 0 0
vn -1 0 0
vn -1 0 0
vn 0 0.7806000113487244 0.625
vn 0 0.7806000113487244 0.625
vn 0 0.7806000113487244 0.625
vn 0 0.7806000113487244 0.625
vn 1 0 -0
vn 1 0 -0
vn 1 0 -0
vn 1 0 -0
vn -1 0 0
vn -1 0 0
vn 0.9556000232696533 0.2944999933242798 -0
vn 0 -1 0
vn 0 -1 0
vn 0 -0.7067999839782715 0.7074000239372253
vn 0 -0.7067999839782715 0.7074000239372253
vn 0 -0.7067999839782715 0.7074000239372253
vn 0 -0.7067999839782715 0.7074000239372253
vn 0 -1 0
vn 0 -1 0
vn 0 -1 0
vn 0 -1 0
vn -0 0 -1
vn -0 0 -1
vn -0 0 -1
vn -0 0 -1
vn -0.9556000232696533 0.2944999933242798 0
vn 0 1 0
vn 0 1 0
f 3/3/3 2/2/2 1/1/1
f 6/6/6 5/5/5 4/4/4
f 5/5/5 52/52/52 4/4/4
f 7/7/7 6/6/6 4/4/4
f 52/52/52 51/51/51 4/4/4
f 7/7/7 57/57/57 6/6/6
f 52/52/52 70/70/70 51/51/51
f 70/70/70 69/69/69 51/51/51
f 58/58/58 57/57/57 7/7/7
f 7/7/7 59/59/59 58/58/58
f 59/59/59 60/60/60 58/58/58
f 10/10/10 9/9/9 8/8/8
f 11/11/11 10/10/10 8/8/8
f 56/56/56 9/9/9 10/10/10
f 56/56/56 10/10/10 55/55/55
f 56/56/56 55/55/55 53/53/53
f 55/55/55 54/54/54 53/53/53
f 54/54/54 65/65/65 53/53/53
f 65/65/65 66/66/66 53/53/53
f 53/53/53 66/66/66 67/67/67
f 67/67/67 66/66/66 68/68/68
f 14/14/14 13/13/13 12/12/12
f 24/24/24 23/23/23 14/14/14
f 23/23/23 17/17/17 14/14/14
f 14/14/14 17/17/17 13/13/13
f 21/21/21 14/14/14 12/12/12
f 20/20/20 21/21/21 12/12/12
f 21/21/21 20/20/20 19/19/19
f 16/16/16 21/21/21 19/19/19
f 19/19/19 22/22/22 16/16/16
f 16/16/16 22/22/22 15/15/15
f 17/17/17 16/16/16 15/15/15
f 18/18/18 17/17/17 15/15/15
f 17/17/17 18/18/18 25/25/25
f 17/17/17 25/25/25 13/13/13
f 13/13/13 25/25/25 87/87/87
f 25/25/25 88/88/88 87/87/87
f 28/28/28 27/27/27 26/26/26
f 31/31/31 30/30/30 29/29/29
f 32/32/32 31/31/31 29/29/29
f 35/35/35 34/34/34 33/33/33
f 36/36/36 35/35/35 33/33/33
f 39/39/39 38/38/38 37/37/37
f 38/38/38 39/39/39 86/86/86
f 40/40/40 39/39/39 37/37/37
f 40/40/40 37/37/37 41/41/41
f 42/42/42 40/40/40 41/41/41
f 42/42/42 41/41/41 43/43/43
f 44/44/44 42/42/42 43/43/43
f 44/44/44 43/43/43 45/45/45
f 46/46/46 44/44/44 45/45/45
f 46/46/46 45/45/45 71/71/71
f 49/49/49 48/48/48 47/47/47
f 50/50/50 49/49/49 47/47/47
f 48/48/48 73/73/73 47/47/47
f 73/73/73 72/72/72 47/47/47
f 63/63/63 62/62/62 61/61/61
f 64/64/64 63/63/63 61/61/61
f 76/76/76 75/75/75 74/74/74
f 77/77/77 76/76/76 74/74/74
f 80/80/80 79/79/79 78/78/78
f 81/81/81 80/80/80 78/78/78
f 84/84/84 83/83/83 82/82/82
f 85/85/85 84/84/84 82/82/82
