# VPXTOOL table OBJ file
# VPXTOOL OBJ file
# numVerts: 151 numFaces: 261
o p15off
v -0.0445219986140728 -0.045788999646902084 -0.00455900002270937
v -0.06476200371980667 -0.045788999646902084 -0.046553000807762146
v 0.3721019923686981 -0.045788999646902084 -0.037519000470638275
v 0.3915179967880249 -0.001787999994121492 0.046709999442100525
v 0.3721489906311035 -0.001787999994121492 0.05476199835538864
v 0.3721489906311035 -0.045788999646902084 0.05476199835538864
v 0.3915179967880249 -0.045788999646902084 0.046709999442100525
v 0.3721019923686981 -0.001787999994121492 -0.037519000470638275
v 0.3721019923686981 -0.045788999646902084 -0.037519000470638275
v -0.24881500005722046 -0.045788999646902084 -0.2589229941368103
v -0.24881500005722046 -0.001787999994121492 -0.2589229941368103
v -0.10495200008153915 -0.001787999994121492 -0.07025399804115295
v -0.10495200008153915 -0.045788999646902084 -0.07025399804115295
v -0.06476200371980667 -0.045788999646902084 -0.046553000807762146
v -0.06476200371980667 -0.001787999994121492 -0.046553000807762146
v 0.4152750074863434 -0.001787999994121492 0.013888999819755554
v 0.4152750074863434 -0.045788999646902084 0.013888999819755554
v 0.41263800859451294 -0.045788999646902084 -0.006775000132620335
v 0.41263800859451294 -0.001787999994121492 -0.006775000132620335
v -0.318666011095047 -0.001787999994121492 -0.16113199293613434
v -0.3273969888687134 -0.001787999994121492 -0.1971459984779358
v -0.3273969888687134 -0.045788999646902084 -0.1971459984779358
v -0.318666011095047 -0.045788999646902084 -0.16113199293613434
v -0.06476200371980667 -0.001787999994121492 -0.046553000807762146
v -0.06476200371980667 -0.045788999646902084 -0.046553000807762146
v -0.0445219986140728 -0.045788999646902084 -0.00455900002270937
v -0.0445219986140728 -0.001787999994121492 -0.00455900002270937
v -0.33313000202178955 -0.045788999646902084 0.2066749930381775
v -0.32189100980758667 -0.045788999646902084 0.17154699563980103
v -0.2892889976501465 -0.045788999646902084 0.15338100492954254
v 0.4000700116157532 -0.045788999646902084 -0.02342900075018406
v 0.4152750074863434 -0.045788999646902084 0.013888999819755554
v 0.40745699405670166 -0.045788999646902084 0.0331839993596077
v -0.250093013048172 -0.045788999646902084 0.26909899711608887
v -0.2621780037879944 -0.045788999646902084 0.27244699001312256
v 0.38193100690841675 -0.001787999994121492 -0.03384999930858612
v 0.4000700116157532 -0.001787999994121492 -0.02342900075018406
v 0.4000700116157532 -0.045788999646902084 -0.02342900075018406
v 0.38193100690841675 -0.045788999646902084 -0.03384999930858612
v 0.40745699405670166 -0.001787999994121492 0.0331839993596077
v 0.3915179967880249 -0.001787999994121492 0.046709999442100525
v 0.3915179967880249 -0.045788999646902084 0.046709999442100525
v 0.40745699405670166 -0.045788999646902084 0.0331839993596077
v 0.3915179967880249 -0.045788999646902084 0.046709999442100525
v -0.3258349895477295 -0.045788999646902084 0.24331100285053253
v 0.41263800859451294 -0.045788999646902084 -0.006775000132620335
v -0.05326800048351288 -0.045788999646902084 0.04132800176739693
v 0.3721489906311035 -0.045788999646902084 0.05476199835538864
v -0.08247499912977219 -0.045788999646902084 0.07760199904441833
v -0.2621780037879944 -0.001787999994121492 0.27244699001312256
v -0.2621780037879944 -0.045788999646902084 0.27244699001312256
v -0.250093013048172 -0.045788999646902084 0.26909899711608887
v -0.250093013048172 -0.001787999994121492 0.26909899711608887
v -0.1038919985294342 -0.001787999994121492 0.08764199912548065
v -0.1038919985294342 -0.045788999646902084 0.08764199912548065
v -0.2892889976501465 -0.045788999646902084 0.15338100492954254
v -0.2892889976501465 -0.001787999994121492 0.15338100492954254
v 0.41263800859451294 -0.001787999994121492 -0.006775000132620335
v 0.41263800859451294 -0.045788999646902084 -0.006775000132620335
v 0.4000700116157532 -0.045788999646902084 -0.02342900075018406
v 0.4000700116157532 -0.001787999994121492 -0.02342900075018406
v -0.28852999210357666 -0.045788999646902084 -0.139274001121521
v -0.318666011095047 -0.045788999646902084 -0.16113199293613434
v -0.3273969888687134 -0.045788999646902084 -0.1971459984779358
v -0.2989700138568878 -0.045788999646902084 0.2689040005207062
v -0.28852999210357666 -0.045788999646902084 -0.139274001121521
v -0.28852999210357666 -0.001787999994121492 -0.139274001121521
v -0.318666011095047 -0.001787999994121492 -0.16113199293613434
v -0.318666011095047 -0.045788999646902084 -0.16113199293613434
v -0.3258349895477295 -0.001787999994121492 0.24331100285053253
v -0.3258349895477295 -0.045788999646902084 0.24331100285053253
v -0.2989700138568878 -0.045788999646902084 0.2689040005207062
v -0.2989700138568878 -0.001787999994121492 0.2689040005207062
v -0.3258349895477295 -0.045788999646902084 0.24331100285053253
v -0.3258349895477295 -0.001787999994121492 0.24331100285053253
v -0.33313000202178955 -0.001787999994121492 0.2066749930381775
v -0.33313000202178955 -0.045788999646902084 0.2066749930381775
v -0.05326800048351288 -0.001787999994121492 0.04132800176739693
v -0.0445219986140728 -0.001787999994121492 -0.00455900002270937
v -0.0445219986140728 -0.045788999646902084 -0.00455900002270937
v -0.05326800048351288 -0.045788999646902084 0.04132800176739693
v -0.24881500005722046 -0.001787999994121492 -0.2589229941368103
v -0.24881500005722046 -0.045788999646902084 -0.2589229941368103
v -0.2860580086708069 -0.045788999646902084 -0.2566019892692566
v -0.2860580086708069 -0.001787999994121492 -0.2566019892692566
v -0.24881500005722046 -0.045788999646902084 -0.2589229941368103
v -0.3150250017642975 -0.001787999994121492 -0.23238499462604523
v -0.3150250017642975 -0.045788999646902084 -0.23238499462604523
v -0.3273969888687134 -0.045788999646902084 -0.1971459984779358
v -0.3273969888687134 -0.001787999994121492 -0.1971459984779358
v -0.3150250017642975 -0.045788999646902084 -0.23238499462604523
v -0.250093013048172 -0.001787999994121492 0.26909899711608887
v -0.250093013048172 -0.045788999646902084 0.26909899711608887
v 0.3721489906311035 -0.045788999646902084 0.05476199835538864
v 0.3721489906311035 -0.001787999994121492 0.05476199835538864
v -0.33313000202178955 -0.045788999646902084 0.2066749930381775
v -0.33313000202178955 -0.001787999994121492 0.2066749930381775
v -0.32189100980758667 -0.001787999994121492 0.17154699563980103
v -0.32189100980758667 -0.045788999646902084 0.17154699563980103
v -0.2860580086708069 -0.045788999646902084 -0.2566019892692566
v -0.10495200008153915 -0.045788999646902084 -0.07025399804115295
v -0.1038919985294342 -0.045788999646902084 0.08764199912548065
v 0.38193100690841675 -0.001787999994121492 -0.03384999930858612
v 0.38193100690841675 -0.045788999646902084 -0.03384999930858612
v 0.3721019923686981 -0.045788999646902084 -0.037519000470638275
v 0.3721019923686981 -0.001787999994121492 -0.037519000470638275
v 0.38193100690841675 -0.045788999646902084 -0.03384999930858612
v -0.2989700138568878 -0.001787999994121492 0.2689040005207062
v -0.2989700138568878 -0.045788999646902084 0.2689040005207062
v -0.2621780037879944 -0.045788999646902084 0.27244699001312256
v -0.2621780037879944 -0.001787999994121492 0.27244699001312256
v -0.32189100980758667 -0.045788999646902084 0.17154699563980103
v -0.32189100980758667 -0.001787999994121492 0.17154699563980103
v -0.2892889976501465 -0.001787999994121492 0.15338100492954254
v -0.2892889976501465 -0.045788999646902084 0.15338100492954254
v -0.3150250017642975 -0.001787999994121492 -0.23238499462604523
v -0.2860580086708069 -0.001787999994121492 -0.2566019892692566
v -0.2860580086708069 -0.045788999646902084 -0.2566019892692566
v -0.3150250017642975 -0.045788999646902084 -0.23238499462604523
v -0.05326800048351288 -0.001787999994121492 0.04132800176739693
v -0.05326800048351288 -0.045788999646902084 0.04132800176739693
v -0.08247499912977219 -0.045788999646902084 0.07760199904441833
v -0.08247499912977219 -0.001787999994121492 0.07760199904441833
v 0.4152750074863434 -0.001787999994121492 0.013888999819755554
v 0.40745699405670166 -0.001787999994121492 0.0331839993596077
v 0.40745699405670166 -0.045788999646902084 0.0331839993596077
v 0.4152750074863434 -0.045788999646902084 0.013888999819755554
v -0.08247499912977219 -0.001787999994121492 0.07760199904441833
v -0.08247499912977219 -0.045788999646902084 0.07760199904441833
v -0.1038919985294342 -0.045788999646902084 0.08764199912548065
v -0.1038919985294342 -0.001787999994121492 0.08764199912548065
v -0.28852999210357666 -0.001787999994121492 -0.139274001121521
v -0.28852999210357666 -0.045788999646902084 -0.139274001121521
v -0.10495200008153915 -0.045788999646902084 -0.07025399804115295
v -0.10495200008153915 -0.001787999994121492 -0.07025399804115295
v -0.030378000810742378 -0.1069289967417717 0.14113999903202057
v -0.030378000810742378 -0.09278599917888641 0.14113999903202057
v -0.08695100247859955 -0.09278599917888641 0.14113999903202057
v -0.08695100247859955 -0.1069289967417717 0.14113999903202057
v -0.08695100247859955 -0.1069289967417717 0.1728619933128357
v -0.08695100247859955 -0.09278599917888641 0.1728619933128357
v -0.030378000810742378 -0.09278599917888641 0.1728619933128357
v -0.030378000810742378 -0.1069289967417717 0.1728619933128357
v -0.07452499866485596 -0.1069289967417717 0.12871499359607697
v -0.07452499866485596 -0.09278599917888641 0.12871499359607697
v -0.07452499866485596 -0.09278599917888641 0.18528799712657928
v -0.07452499866485596 -0.1069289967417717 0.18528799712657928
v -0.042803000658750534 -0.1069289967417717 0.18528799712657928
v -0.042803000658750534 -0.09278599917888641 0.18528799712657928
v -0.042803000658750534 -0.09278599917888641 0.12871499359607697
v -0.042803000658750534 -0.1069289967417717 0.12871499359607697
vt 0.39837199449539185 0.488506019115448
vt 0.3740350008010864 0.4380130171775818
vt 0.8993149995803833 0.4488760232925415
vt 0.9597229957580566 0.554548978805542
vt 0.934391975402832 0.5650789737701416
vt 0.8993719816207886 0.5598329901695251
vt 0.9226599931716919 0.550150990486145
vt 0.9343309998512268 0.44439202547073364
vt 0.8993149995803833 0.4488760232925415
vt 0.1527319997549057 0.1826620101928711
vt 0.12228000164031982 0.15483498573303223
vt 0.3104279935359955 0.4015809893608093
vt 0.3257110118865967 0.40951502323150635
vt 0.3740350008010864 0.4380130171775818
vt 0.36298900842666626 0.4325770139694214
vt 0.9907940030097961 0.5116260051727295
vt 0.951225996017456 0.5106890201568604
vt 0.9480559825897217 0.4858419895172119
vt 0.9873449802398682 0.4846000075340271
vt 0.030928000807762146 0.28272801637649536
vt 0.019509999081492424 0.23562800884246826
vt 0.058246999979019165 0.2569419741630554
vt 0.068743996322155 0.3002449870109558
vt 0.36298900842666626 0.4325770139694214
vt 0.3740350008010864 0.4380130171775818
vt 0.39837199449539185 0.488506019115448
vt 0.3894599974155426 0.4874979853630066
vt 0.05135300010442734 0.7424919605255127
vt 0.06486599892377853 0.700253963470459
vt 0.10406699776649475 0.6784119606018066
vt 0.9329439997673035 0.46581798791885376
vt 0.951225996017456 0.5106890201568604
vt 0.9418249726295471 0.5338889956474304
vt 0.15119600296020508 0.817550003528595
vt 0.1366650015115738 0.8215749859809875
vt 0.9471859931945801 0.44919097423553467
vt 0.970907986164093 0.46281999349594116
vt 0.9329439997673035 0.46581798791885376
vt 0.9111340045928955 0.4532870054244995
vt 0.9805690050125122 0.5368599891662598
vt 0.9597229957580566 0.554548978805542
vt 0.9226599931716919 0.550150990486145
vt 0.9418249726295471 0.5338889956474304
vt 0.9226599931716919 0.550150990486145
vt 0.060123998671770096 0.7865419983863831
vt 0.9480559825897217 0.4858419895172119
vt 0.38785600662231445 0.5436800122261047
vt 0.8993719816207886 0.5598329901695251
vt 0.3527370095252991 0.5872960090637207
vt 0.10480500012636185 0.8497740030288696
vt 0.1366650015115738 0.8215749859809875
vt 0.15119600296020508 0.817550003528595
vt 0.12060900032520294 0.8453949689865112
vt 0.31181401014328003 0.6080809831619263
vt 0.32698601484298706 0.5993679761886597
vt 0.10406699776649475 0.6784119606018066
vt 0.06934799998998642 0.6940569877624512
vt 0.9873449802398682 0.4846000075340271
vt 0.9480559825897217 0.4858419895172119
vt 0.9329439997673035 0.46581798791885376
vt 0.970907986164093 0.46281999349594116
vt 0.1049799993634224 0.3265269994735718
vt 0.068743996322155 0.3002449870109558
vt 0.058246999979019165 0.2569419741630554
vt 0.09242700040340424 0.8173149824142456
vt 0.1049799993634224 0.3265269994735718
vt 0.07034099847078323 0.31131500005722046
vt 0.030928000807762146 0.28272801637649536
vt 0.068743996322155 0.3002449870109558
vt 0.02155200019478798 0.8116689920425415
vt 0.060123998671770096 0.7865419983863831
vt 0.09242700040340424 0.8173149824142456
vt 0.05668700113892555 0.8451399803161621
vt 0.060123998671770096 0.7865419983863831
vt 0.02155200019478798 0.8116689920425415
vt 0.012010999955236912 0.7637560367584229
vt 0.05135300010442734 0.7424919605255127
vt 0.3780219852924347 0.547510027885437
vt 0.3894599974155426 0.4874979853630066
vt 0.39837199449539185 0.488506019115448
vt 0.38785600662231445 0.5436800122261047
vt 0.12228000164031982 0.15483498573303223
vt 0.1527319997549057 0.1826620101928711
vt 0.10795199871063232 0.18545299768447876
vt 0.07357300072908401 0.15786999464035034
vt 0.1527319997549057 0.1826620101928711
vt 0.03568999841809273 0.1895430088043213
vt 0.07312200218439102 0.214572012424469
vt 0.058246999979019165 0.2569419741630554
vt 0.019509999081492424 0.23562800884246826
vt 0.07312200218439102 0.214572012424469
vt 0.12060900032520294 0.8453949689865112
vt 0.15119600296020508 0.817550003528595
vt 0.8993719816207886 0.5598329901695251
vt 0.934391975402832 0.5650789737701416
vt 0.05135300010442734 0.7424919605255127
vt 0.012010999955236912 0.7637560367584229
vt 0.02670999988913536 0.7178150415420532
vt 0.06486599892377853 0.700253963470459
vt 0.10795199871063232 0.18545299768447876
vt 0.3257110118865967 0.40951502323150635
vt 0.32698601484298706 0.5993679761886597
vt 0.9471859931945801 0.44919097423553467
vt 0.9111340045928955 0.4532870054244995
vt 0.8993149995803833 0.4488760232925415
vt 0.9343309998512268 0.44439202547073364
vt 0.9111340045928955 0.4532870054244995
vt 0.05668700113892555 0.8451399803161621
vt 0.09242700040340424 0.8173149824142456
vt 0.1366650015115738 0.8215749859809875
vt 0.10480500012636185 0.8497740030288696
vt 0.06486599892377853 0.700253963470459
vt 0.02670999988913536 0.7178150415420532
vt 0.06934799998998642 0.6940569877624512
vt 0.10406699776649475 0.6784119606018066
vt 0.03568999841809273 0.1895430088043213
vt 0.07357300072908401 0.15786999464035034
vt 0.10795199871063232 0.18545299768447876
vt 0.07312200218439102 0.214572012424469
vt 0.3780219852924347 0.547510027885437
vt 0.38785600662231445 0.5436800122261047
vt 0.3527370095252991 0.5872960090637207
vt 0.33982399106025696 0.5949510335922241
vt 0.9907940030097961 0.5116260051727295
vt 0.9805690050125122 0.5368599891662598
vt 0.9418249726295471 0.5338889956474304
vt 0.951225996017456 0.5106890201568604
vt 0.33982399106025696 0.5949510335922241
vt 0.3527370095252991 0.5872960090637207
vt 0.32698601484298706 0.5993679761886597
vt 0.31181401014328003 0.6080809831619263
vt 0.07034099847078323 0.31131500005722046
vt 0.1049799993634224 0.3265269994735718
vt 0.3257110118865967 0.40951502323150635
vt 0.3104279935359955 0.4015809893608093
vt 0 1
vt 0 1
vt 0 1
vt 0 1
vt 0 1
vt 0 1
vt 0 1
vt 0 1
vt 0 1
vt 0 1
vt 0 1
vt 0 1
vt 0 1
vt 0 1
vt 0 1
vt 0 1
vn 0 1 0
vn 0 1 0
vn 0 1 0
vn -0.383899986743927 0 -0.9233999848365784
vn -0.383899986743927 0 -0.9233999848365784
vn -0.383899986743927 0 -0.9233999848365784
vn -0.383899986743927 0 -0.9233999848365784
vn -0.3359000086784363 0 0.9419000148773193
vn -0.3359000086784363 0 0.9419000148773193
vn -0.3359000086784363 0 0.9419000148773193
vn -0.3359000086784363 0 0.9419000148773193
vn 0.5080000162124634 0 -0.8614000082015991
vn 0.5080000162124634 0 -0.8614000082015991
vn 0.5080000162124634 0 -0.8614000082015991
vn 0.5080000162124634 0 -0.8614000082015991
vn -0.9919999837875366 0 0.1265999972820282
vn -0.9919999837875366 0 0.1265999972820282
vn -0.9919999837875366 0 0.1265999972820282
vn -0.9919999837875366 0 0.1265999972820282
vn 0.9718999862670898 0 -0.23559999465942383
vn 0.9718999862670898 0 -0.23559999465942383
vn 0.9718999862670898 0 -0.23559999465942383
vn 0.9718999862670898 0 -0.23559999465942383
vn 0.9007999897003174 0 -0.4341999888420105
vn 0.9007999897003174 0 -0.4341999888420105
vn 0.9007999897003174 0 -0.4341999888420105
vn 0.9007999897003174 0 -0.4341999888420105
vn 0 1 0
vn 0 1 0
vn 0 1 0
vn 0 1 0
vn 0 1 0
vn 0 1 0
vn 0 1 0
vn 0 1 0
vn -0.498199999332428 0 0.8671000003814697
vn -0.498199999332428 0 0.8671000003814697
vn -0.498199999332428 0 0.8671000003814697
vn -0.498199999332428 0 0.8671000003814697
vn -0.6470000147819519 0 -0.762499988079071
vn -0.6470000147819519 0 -0.762499988079071
vn -0.6470000147819519 0 -0.762499988079071
vn -0.6470000147819519 0 -0.762499988079071
vn 0 1 0
vn 0 1 0
vn 0 1 0
vn 0 1 0
vn 0 1 0
vn 0 1 0
vn -0.2669999897480011 0 -0.963699996471405
vn -0.2669999897480011 0 -0.963699996471405
vn -0.2669999897480011 0 -0.963699996471405
vn -0.2669999897480011 0 -0.963699996471405
vn 0.334199994802475 0 0.9424999952316284
vn 0.334199994802475 0 0.9424999952316284
vn 0.334199994802475 0 0.9424999952316284
vn 0.334199994802475 0 0.9424999952316284
vn -0.7982000112533569 0 0.602400004863739
vn -0.7982000112533569 0 0.602400004863739
vn -0.7982000112533569 0 0.602400004863739
vn -0.7982000112533569 0 0.602400004863739
vn 0 1 0
vn 0 1 0
vn 0 1 0
vn 0 1 0
vn 0.5871000289916992 0 -0.809499979019165
vn 0.5871000289916992 0 -0.809499979019165
vn 0.5871000289916992 0 -0.809499979019165
vn 0.5871000289916992 0 -0.809499979019165
vn 0.6898000240325928 0 -0.7239999771118164
vn 0.6898000240325928 0 -0.7239999771118164
vn 0.6898000240325928 0 -0.7239999771118164
vn 0.6898000240325928 0 -0.7239999771118164
vn 0.9807000160217285 0 -0.19529999792575836
vn 0.9807000160217285 0 -0.19529999792575836
vn 0.9807000160217285 0 -0.19529999792575836
vn 0.9807000160217285 0 -0.19529999792575836
vn 0.9822999835014343 0 0.18719999492168427
vn 0.9822999835014343 0 0.18719999492168427
vn 0.9822999835014343 0 0.18719999492168427
vn 0.9822999835014343 0 0.18719999492168427
vn 0.062199998646974564 0 0.9980999827384949
vn 0.062199998646974564 0 0.9980999827384949
vn 0.062199998646974564 0 0.9980999827384949
vn 0.062199998646974564 0 0.9980999827384949
vn 0 1 0
vn 0.9434999823570251 0 0.3312999904155731
vn 0.9434999823570251 0 0.3312999904155731
vn 0.9434999823570251 0 0.3312999904155731
vn 0.9434999823570251 0 0.3312999904155731
vn 0 1 0
vn -0.3257000148296356 0 -0.9455000162124634
vn -0.3257000148296356 0 -0.9455000162124634
vn -0.3257000148296356 0 -0.9455000162124634
vn -0.3257000148296356 0 -0.9455000162124634
vn 0.9524000287055969 0 0.30469998717308044
vn 0.9524000287055969 0 0.30469998717308044
vn 0.9524000287055969 0 0.30469998717308044
vn 0.9524000287055969 0 0.30469998717308044
vn 0 1 0
vn 0 1 0
vn 0 1 0
vn -0.349700003862381 0 0.9369000196456909
vn -0.349700003862381 0 0.9369000196456909
vn -0.349700003862381 0 0.9369000196456909
vn -0.349700003862381 0 0.9369000196456909
vn 0 1 0
vn 0.09589999914169312 0 -0.9954000115394592
vn 0.09589999914169312 0 -0.9954000115394592
vn 0.09589999914169312 0 -0.9954000115394592
vn 0.09589999914169312 0 -0.9954000115394592
vn 0.48669999837875366 0 0.8734999895095825
vn 0.48669999837875366 0 0.8734999895095825
vn 0.48669999837875366 0 0.8734999895095825
vn 0.48669999837875366 0 0.8734999895095825
vn 0.6413999795913696 0 0.7671999931335449
vn 0.6413999795913696 0 0.7671999931335449
vn 0.6413999795913696 0 0.7671999931335449
vn 0.6413999795913696 0 0.7671999931335449
vn 0.7789000272750854 0 0.6270999908447266
vn 0.7789000272750854 0 0.6270999908447266
vn 0.7789000272750854 0 0.6270999908447266
vn 0.7789000272750854 0 0.6270999908447266
vn -0.926800012588501 0 -0.37549999356269836
vn -0.926800012588501 0 -0.37549999356269836
vn -0.926800012588501 0 -0.37549999356269836
vn -0.926800012588501 0 -0.37549999356269836
vn 0.4244999885559082 0 0.9054999947547913
vn 0.4244999885559082 0 0.9054999947547913
vn 0.4244999885559082 0 0.9054999947547913
vn 0.4244999885559082 0 0.9054999947547913
vn 0.35190001130104065 0 -0.9359999895095825
vn 0.35190001130104065 0 -0.9359999895095825
vn 0.35190001130104065 0 -0.9359999895095825
vn 0.35190001130104065 0 -0.9359999895095825
vn 0 0 -1
vn 0 0 -1
vn 0 0 -1
vn 0 0 -1
vn 0 0 1
vn 0 0 1
vn 0 0 1
vn 0 0 1
vn -1 0 -0
vn -1 0 -0
vn -1 0 -0
vn -1 0 -0
vn 1 0 0
vn 1 0 0
vn 1 0 0
vn 1 0 0
f 6/6/6 5/5/5 4/4/4
f 7/7/7 6/6/6 4/4/4
f 3/3/3 2/2/2 1/1/1
f 3/3/3 86/86/86 2/2/2
f 86/86/86 101/101/101 2/2/2
f 101/101/101 86/86/86 62/62/62
f 1/1/1 48/48/48 3/3/3
f 47/47/47 48/48/48 1/1/1
f 107/107/107 3/3/3 48/48/48
f 49/49/49 48/48/48 47/47/47
f 48/48/48 44/44/44 107/107/107
f 34/34/34 48/48/48 49/49/49
f 31/31/31 107/107/107 44/44/44
f 49/49/49 102/102/102 34/34/34
f 44/44/44 33/33/33 31/31/31
f 33/33/33 32/32/32 31/31/31
f 32/32/32 46/46/46 31/31/31
f 102/102/102 30/30/30 34/34/34
f 30/30/30 28/28/28 34/34/34
f 30/30/30 29/29/29 28/28/28
f 35/35/35 34/34/34 28/28/28
f 28/28/28 45/45/45 35/35/35
f 45/45/45 65/65/65 35/35/35
f 64/64/64 63/63/63 62/62/62
f 91/91/91 64/64/64 62/62/62
f 91/91/91 62/62/62 86/86/86
f 86/86/86 100/100/100 91/91/91
f 10/10/10 9/9/9 8/8/8
f 11/11/11 10/10/10 8/8/8
f 14/14/14 13/13/13 12/12/12
f 15/15/15 14/14/14 12/12/12
f 18/18/18 17/17/17 16/16/16
f 19/19/19 18/18/18 16/16/16
f 22/22/22 21/21/21 20/20/20
f 23/23/23 22/22/22 20/20/20
f 26/26/26 25/25/25 24/24/24
f 27/27/27 26/26/26 24/24/24
f 38/38/38 37/37/37 36/36/36
f 39/39/39 38/38/38 36/36/36
f 42/42/42 41/41/41 40/40/40
f 43/43/43 42/42/42 40/40/40
f 52/52/52 51/51/51 50/50/50
f 53/53/53 52/52/52 50/50/50
f 56/56/56 55/55/55 54/54/54
f 57/57/57 56/56/56 54/54/54
f 60/60/60 59/59/59 58/58/58
f 61/61/61 60/60/60 58/58/58
f 68/68/68 67/67/67 66/66/66
f 69/69/69 68/68/68 66/66/66
f 72/72/72 71/71/71 70/70/70
f 73/73/73 72/72/72 70/70/70
f 76/76/76 75/75/75 74/74/74
f 77/77/77 76/76/76 74/74/74
f 80/80/80 79/79/79 78/78/78
f 81/81/81 80/80/80 78/78/78
f 84/84/84 83/83/83 82/82/82
f 85/85/85 84/84/84 82/82/82
f 89/89/89 88/88/88 87/87/87
f 90/90/90 89/89/89 87/87/87
f 94/94/94 93/93/93 92/92/92
f 95/95/95 94/94/94 92/92/92
f 98/98/98 97/97/97 96/96/96
f 99/99/99 98/98/98 96/96/96
f 105/105/105 104/104/104 103/103/103
f 106/106/106 105/105/105 103/103/103
f 110/110/110 109/109/109 108/108/108
f 111/111/111 110/110/110 108/108/108
f 114/114/114 113/113/113 112/112/112
f 115/115/115 114/114/114 112/112/112
f 118/118/118 117/117/117 116/116/116
f 119/119/119 118/118/118 116/116/116
f 122/122/122 121/121/121 120/120/120
f 123/123/123 122/122/122 120/120/120
f 126/126/126 125/125/125 124/124/124
f 127/127/127 126/126/126 124/124/124
f 130/130/130 129/129/129 128/128/128
f 131/131/131 130/130/130 128/128/128
f 134/134/134 133/133/133 132/132/132
f 135/135/135 134/134/134 132/132/132
f 138/138/138 137/137/137 136/136/136
f 139/139/139 138/138/138 136/136/136
f 142/142/142 141/141/141 140/140/140
f 143/143/143 142/142/142 140/140/140
f 146/146/146 145/145/145 144/144/144
f 147/147/147 146/146/146 144/144/144
f 150/150/150 149/149/149 148/148/148
f 151/151/151 150/150/150 148/148/148
