# VPXTOOL table OBJ file
# VPXTOOL OBJ file
# numVerts: 24 numFaces: 36
o VR_Wall_Right
v -0.5239710211753845 -1.99331796169281 1.3691749572753906
v -5.013966083526611 -1.638746976852417 -3.727725028991699
v -5.02216100692749 3.5887069702148438 -3.356851100921631
v -0.5321679711341858 3.2341361045837402 1.7400490045547485
v -0.46550801396369934 -1.9870020151138306 1.3181129693984985
v -0.4737040102481842 3.2404510974884033 1.6889859437942505
v -4.963697910308838 3.595021963119507 -3.40791392326355
v -4.955502033233643 -1.6324310302734375 -3.7787868976593018
v -0.4737040102481842 3.2404510974884033 1.6889859437942505
v -0.5321679711341858 3.2341361045837402 1.7400490045547485
v -5.02216100692749 3.5887069702148438 -3.356851100921631
v -4.963697910308838 3.595021963119507 -3.40791392326355
v -0.46550801396369934 -1.9870020151138306 1.3181129693984985
v -0.5239710211753845 -1.99331796169281 1.3691749572753906
v -0.5321679711341858 3.2341361045837402 1.7400490045547485
v -0.4737040102481842 3.2404510974884033 1.6889859437942505
v -4.955502033233643 -1.6324310302734375 -3.7787868976593018
v -5.013966083526611 -1.638746976852417 -3.727725028991699
v -0.5239710211753845 -1.99331796169281 1.3691749572753906
v -0.46550801396369934 -1.9870020151138306 1.3181129693984985
v -4.963697910308838 3.595021963119507 -3.40791392326355
v -5.02216100692749 3.5887069702148438 -3.356851100921631
v -5.013966083526611 -1.638746976852417 -3.727725028991699
v -4.955502033233643 -1.6324310302734375 -3.7787868976593018
vt 0.9945639967918396 0
vt 0.005435999948531389 0
vt 0.005435999948531389 1
vt 0.9945639967918396 1
vt 0.9945639967918396 0
vt 0.9945639967918396 1
vt 0.005435999948531389 1
vt 0.005435999948531389 0
vt 0.9945639967918396 1
vt 0.9945639967918396 1
vt 0.005435999948531389 1
vt 0.005435999948531389 1
vt 0.9945639967918396 0
vt 0.9945639967918396 0
vt 0.9945639967918396 1
vt 0.9945639967918396 1
vt 0.005435999948531389 0
vt 0.005435999948531389 0
vt 0.9945639967918396 0
vt 0.9945639967918396 0
vt 0.005435999948531389 1
vt 0.005435999948531389 1
vt 0.005435999948531389 0
vt 0.005435999948531389 0
vn -0.7505000233650208 -0.08640000224113464 0.6552000045776367
vn -0.7505000233650208 -0.08640000224113464 0.6552000045776367
vn -0.7505000233650208 -0.08640000224113464 0.6552000045776367
vn -0.7505000233650208 -0.08640000224113464 0.6552000045776367
vn 0.7505000233650208 0.08640000224113464 -0.6552000045776367
vn 0.7505000233650208 0.08640000224113464 -0.6552000045776367
vn 0.7505000233650208 0.08640000224113464 -0.6552000045776367
vn 0.7505000233650208 0.08640000224113464 -0.6552000045776367
vn 0.002400000113993883 0.9976999759674072 0.06729999929666519
vn 0.002400000113993883 0.9976999759674072 0.06729999929666519
vn 0.002400000113993883 0.9976999759674072 0.06729999929666519
vn 0.002400000113993883 0.9976999759674072 0.06729999929666519
vn 0.660099983215332 -0.05209999904036522 0.7493000030517578
vn 0.660099983215332 -0.05209999904036522 0.7493000030517578
vn 0.660099983215332 -0.05209999904036522 0.7493000030517578
vn 0.660099983215332 -0.05209999904036522 0.7493000030517578
vn -0.002400000113993883 -0.9976999759674072 -0.06729999929666519
vn -0.002400000113993883 -0.9976999759674072 -0.06729999929666519
vn -0.002400000113993883 -0.9976999759674072 -0.06729999929666519
vn -0.002400000113993883 -0.9976999759674072 -0.06729999929666519
vn -0.660099983215332 0.05209999904036522 -0.7493000030517578
vn -0.660099983215332 0.05209999904036522 -0.7493000030517578
vn -0.660099983215332 0.05209999904036522 -0.7494000196456909
vn -0.660099983215332 0.05209999904036522 -0.7494000196456909
f 3/3/3 2/2/2 1/1/1
f 1/1/1 4/4/4 3/3/3
f 7/7/7 6/6/6 5/5/5
f 5/5/5 8/8/8 7/7/7
f 11/11/11 10/10/10 9/9/9
f 9/9/9 12/12/12 11/11/11
f 15/15/15 14/14/14 13/13/13
f 13/13/13 16/16/16 15/15/15
f 19/19/19 18/18/18 17/17/17
f 17/17/17 20/20/20 19/19/19
f 23/23/23 22/22/22 21/21/21
f 21/21/21 24/24/24 23/23/23
