# VPXTOOL table OBJ file
# VPXTOOL OBJ file
# numVerts: 64 numFaces: 234
o p21off
v 18.010025024414063 31.768085479736328 3.1173388957977295
v 17.776456832885742 33.11793518066406 3.112746000289917
v 17.202625274658203 34.27910614013672 3.1055641174316406
v 16.286067962646484 35.18868637084961 3.109055995941162
v 15.12283992767334 35.77735137939453 3.110927104949951
v 13.789143562316895 35.99325942993164 3.1210720539093018
v -13.799761772155762 35.99240493774414 3.1202449798583984
v -15.125716209411621 35.77033996582031 3.112283945083618
v -16.28265380859375 35.18815994262695 3.1074700355529785
v -17.189292907714844 34.2747802734375 3.1055850982666016
v -17.757041931152344 33.11386489868164 3.1125130653381348
v -17.98987579345703 31.76735496520996 3.116705894470215
v 16.259187698364258 -35.217166900634766 3.1092441082000732
v 15.107646942138672 -35.793365478515625 3.1119871139526367
v 15.107646942138672 -35.793365478515625 0.09821300208568573
v 16.259187698364258 -35.2171630859375 0.09756900370121002
v 17.17005729675293 -34.32199478149414 3.1063849925994873
v 17.17005729675293 -34.321990966796875 0.0928720012307167
v 17.752317428588867 -33.17757034301758 3.1135449409484863
v 17.752317428588867 -33.17756652832031 0.10292000323534012
v 18.004404067993164 -31.847394943237305 3.11490797996521
v 18.004404067993164 -31.847394943237305 0.10400299727916718
v 18.010025024414063 31.768085479736328 0.10891100019216537
v 17.776456832885742 33.11793899536133 0.10153000056743622
v 17.202625274658203 34.279109954833984 0.09143300354480743
v 16.286067962646484 35.188690185546875 0.09736599773168564
v 15.12283992767334 35.77735137939453 0.09640300273895264
v 13.789143562316895 35.99325942993164 0.11442799866199493
v -13.799761772155762 35.99240493774414 0.11302799731492996
v -15.125716209411621 35.77033996582031 0.09951899945735931
v -16.28265380859375 35.18815994262695 0.09494200348854065
v -17.189292907714844 34.2747802734375 0.09217000007629395
v -17.757041931152344 33.11386489868164 0.10190299898386002
v -17.98987579345703 31.76735496520996 0.10856399685144424
v -17.989839553833008 -31.75010871887207 3.116697072982788
v -17.989839553833008 -31.75010871887207 0.10851699858903885
v -17.757722854614258 -33.103763580322266 3.1126060485839844
v -17.757722854614258 -33.103763580322266 0.10191600024700165
v -17.19078826904297 -34.27409362792969 3.105349063873291
v -17.19078826904297 -34.27409362792969 0.0915519967675209
v -16.283845901489258 -35.19312286376953 3.108808994293213
v -16.283845901489258 -35.19312286376953 0.09733700007200241
v -15.128778457641602 -35.788658142089844 3.1109280586242676
v -15.128778457641602 -35.788658142089844 0.09655000269412994
v -13.79942798614502 -36.00674057006836 3.121316909790039
v -13.79942798614502 -36.00674057006836 0.11461000144481659
v 13.789108276367188 -36.006710052490234 3.1214599609375
v 13.789108276367188 -36.006710052490234 0.11477100104093552
v -0.244718998670578 7.957624912261963 5.091429233551025
v -0.244718998670578 7.95762300491333 4.418003082275391
v -13.482681274414063 7.957629203796387 4.418003082275391
v -13.482681274414063 7.957629203796387 5.091429233551025
v -13.482681274414063 15.380674362182617 5.091429233551025
v -13.482677459716797 15.380672454833984 4.418004035949707
v -0.244718998670578 15.380670547485352 4.418004035949707
v -0.24471800029277802 15.380670547485352 5.091429233551025
v -10.575217247009277 5.0501508712768555 5.091427803039551
v -10.575215339660645 5.050154209136963 4.418003082275391
v -10.575213432312012 18.288145065307617 4.418004035949707
v -10.575213432312012 18.288148880004883 5.091430187225342
v -3.1521859169006348 18.288148880004883 5.091430187225342
v -3.1521871089935303 18.288145065307617 4.418004035949707
v -3.1521849632263184 5.050152778625488 4.418003082275391
v -3.1521859169006348 5.0501508712768555 5.091427803039551
vt 0.7406039834022522 0.8982729911804199
vt 0.7375119924545288 0.915244996547699
vt 0.7298880219459534 0.9298840165138245
vt 0.7176200151443481 0.9412509799003601
vt 0.7020670175552368 0.9486110210418701
vt 0.6841980218887329 0.951200008392334
vt 0.31565600633621216 0.9511989951133728
vt 0.29790198802948 0.9485070109367371
vt 0.2824169993400574 0.9412620067596436
vt 0.27028998732566833 0.929830014705658
vt 0.26274600625038147 0.9151970148086548
vt 0.2596609890460968 0.8982700109481812
vt 0.7172600030899048 0.058394014835357666
vt 0.7018579840660095 0.0512009859085083
vt 0.7188969850540161 0.013316988945007324
vt 0.7355859875679016 0.021143019199371338
vt 0.7294480204582214 0.06958699226379395
vt 0.7488170266151428 0.033253014087677
vt 0.737185001373291 0.08401602506637573
vt 0.7571820020675659 0.04894399642944336
vt 0.7405440211296082 0.1007080078125
vt 0.7608259916305542 0.06704097986221313
vt 0.7608720064163208 0.9318220019340515
vt 0.7575420141220093 0.9502630233764648
vt 0.7492989897727966 0.9661819934844971
vt 0.7359769940376282 0.9784730076789856
vt 0.7191280126571655 0.98649001121521
vt 0.6997020244598389 0.9891790151596069
vt 0.300135999917984 0.9891859889030457
vt 0.28084900975227356 0.9863520264625549
vt 0.264055997133255 0.9784979820251465
vt 0.25089898705482483 0.9661139845848083
vt 0.24274200201034546 0.950203001499176
vt 0.23941700160503387 0.9318159818649292
vt 0.2596609890460968 0.10194599628448486
vt 0.23941799998283386 0.06841802597045898
vt 0.2627370059490204 0.08493101596832275
vt 0.2427320033311844 0.0499340295791626
vt 0.2702690064907074 0.07017701864242554
vt 0.25087401270866394 0.03388798236846924
vt 0.28240901231765747 0.05869102478027344
vt 0.2640550136566162 0.021466970443725586
vt 0.2978540062904358 0.0512470006942749
vt 0.28078699111938477 0.013357996940612793
vt 0.31566599011421204 0.04863399267196655
vt 0.3001500070095062 0.010640978813171387
vt 0.6841959953308105 0.048636019229888916
vt 0.6996999979019165 0.01064300537109375
vt 0 1
vt 0 1
vt 0 1
vt 0 1
vt 0 1
vt 0 1
vt 0 1
vt 0 1
vt 0 1
vt 0 1
vt 0 1
vt 0 1
vt 0 1
vt 0 1
vt 0 1
vt 0 1
vn -0.7224000096321106 -0.061799999326467514 -0.6887000203132629
vn -0.7002999782562256 -0.22769999504089355 -0.6765000224113464
vn -0.6018999814987183 -0.43299999833106995 -0.6710000038146973
vn -0.43230000138282776 -0.5990999937057495 -0.6739000082015991
vn -0.22840000689029694 -0.7028999924659729 -0.6735000014305115
vn -0.05779999867081642 -0.7210000157356262 -0.690500020980835
vn 0.05990000069141388 -0.7215999960899353 -0.6897000074386597
vn 0.22910000383853912 -0.7014999985694885 -0.6747999787330627
vn 0.43459999561309814 -0.5989999771118164 -0.6725000143051147
vn 0.6039999723434448 -0.4291999936103821 -0.671500027179718
vn 0.7003999948501587 -0.22609999775886536 -0.6769000291824341
vn 0.7224000096321106 -0.061799999326467514 -0.6887000203132629
vn -0.4296000003814697 0.6011000275611877 -0.6739000082015991
vn -0.22660000622272491 0.7027999758720398 -0.6743000149726868
vn -0.3077000081539154 0.9513999819755554 0
vn -0.5814999938011169 0.8136000037193298 0
vn -0.5978000164031982 0.4372999966144562 -0.6718000173568726
vn -0.8065000176429749 0.5911999940872192 0
vn -0.6965000033378601 0.23690000176429749 -0.677299976348877
vn -0.9462000131607056 0.32339999079704285 0
vn -0.7236999869346619 0.06769999861717224 -0.6868000030517578
vn -0.9955999851226807 0.09359999746084213 0
vn -0.9962999820709229 -0.08560000360012054 0
vn -0.9505000114440918 -0.31049999594688416 0
vn -0.8113999962806702 -0.5845000147819519 0
vn -0.5853000283241272 -0.8108000159263611 0
vn -0.3098999857902527 -0.9506999850273132 0
vn -0.08049999922513962 -0.9966999888420105 0
vn 0.08309999853372574 -0.9965000152587891 0
vn 0.31139999628067017 -0.9502999782562256 0
vn 0.5874999761581421 -0.8091999888420105 0
vn 0.8147000074386597 -0.5799000263214111 0
vn 0.951200008392334 -0.3084999918937683 0
vn 0.9962999820709229 -0.08560000360012054 0
vn 0.7222999930381775 0.06109999865293503 -0.6887999773025513
vn 0.996399998664856 0.08489999920129776 0
vn 0.7008000016212463 0.2240000069141388 -0.6772000193595886
vn 0.9520000219345093 0.3059999942779541 0
vn 0.6057000160217285 0.4271000027656555 -0.6712999939918518
vn 0.8166999816894531 0.5770000219345093 0
vn 0.43790000677108765 0.595300018787384 -0.6736999750137329
vn 0.5924999713897705 0.8054999709129333 0
vn 0.23199999332427979 0.7021999955177307 -0.6730999946594238
vn 0.31450000405311584 0.9491999745368958 0
vn 0.05869999900460243 0.7210000157356262 -0.6904000043869019
vn 0.08150000125169754 0.9965999722480774 0
vn -0.05779999867081642 0.7208999991416931 -0.6905999779701233
vn -0.0803999975323677 0.9966999888420105 0
vn -0 -1 0
vn -0 -1 0
vn -0 -1 0
vn -0 -1 0
vn 0 1 -0
vn 0 1 -0
vn 0 1 -0
vn 0 1 -0
vn -1 0 -0
vn -1 0 -0
vn -1 0 -0
vn -1 0 -0
vn 1 0 -0
vn 1 0 -0
vn 1 0 -0
vn 1 0 -0
f 51/51/51 50/50/50 49/49/49
f 52/52/52 51/51/51 49/49/49
f 3/3/3 2/2/2 1/1/1
f 24/24/24 2/2/2 3/3/3
f 24/24/24 23/23/23 2/2/2
f 23/23/23 1/1/1 2/2/2
f 25/25/25 24/24/24 3/3/3
f 23/23/23 22/22/22 1/1/1
f 25/25/25 3/3/3 4/4/4
f 4/4/4 3/3/3 1/1/1
f 26/26/26 25/25/25 4/4/4
f 26/26/26 4/4/4 5/5/5
f 5/5/5 4/4/4 1/1/1
f 27/27/27 26/26/26 5/5/5
f 27/27/27 5/5/5 6/6/6
f 6/6/6 5/5/5 1/1/1
f 28/28/28 27/27/27 6/6/6
f 28/28/28 6/6/6 7/7/7
f 7/7/7 6/6/6 1/1/1
f 29/29/29 28/28/28 7/7/7
f 29/29/29 7/7/7 8/8/8
f 8/8/8 7/7/7 1/1/1
f 30/30/30 29/29/29 8/8/8
f 30/30/30 8/8/8 9/9/9
f 9/9/9 8/8/8 1/1/1
f 31/31/31 30/30/30 9/9/9
f 31/31/31 9/9/9 10/10/10
f 10/10/10 9/9/9 1/1/1
f 32/32/32 31/31/31 10/10/10
f 32/32/32 10/10/10 11/11/11
f 11/11/11 10/10/10 1/1/1
f 33/33/33 32/32/32 11/11/11
f 33/33/33 11/11/11 12/12/12
f 12/12/12 11/11/11 1/1/1
f 34/34/34 33/33/33 12/12/12
f 22/22/22 21/21/21 1/1/1
f 12/12/12 1/1/1 21/21/21
f 22/22/22 20/20/20 21/21/21
f 34/34/34 12/12/12 35/35/35
f 35/35/35 12/12/12 21/21/21
f 36/36/36 34/34/34 35/35/35
f 20/20/20 19/19/19 21/21/21
f 20/20/20 18/18/18 19/19/19
f 36/36/36 35/35/35 37/37/37
f 38/38/38 36/36/36 37/37/37
f 18/18/18 17/17/17 19/19/19
f 21/21/21 19/19/19 17/17/17
f 35/35/35 21/21/21 17/17/17
f 37/37/37 35/35/35 17/17/17
f 18/18/18 16/16/16 17/17/17
f 38/38/38 37/37/37 39/39/39
f 39/39/39 37/37/37 17/17/17
f 40/40/40 38/38/38 39/39/39
f 40/40/40 39/39/39 41/41/41
f 41/41/41 39/39/39 17/17/17
f 42/42/42 40/40/40 41/41/41
f 42/42/42 41/41/41 43/43/43
f 43/43/43 41/41/41 17/17/17
f 44/44/44 42/42/42 43/43/43
f 44/44/44 43/43/43 45/45/45
f 45/45/45 43/43/43 17/17/17
f 46/46/46 44/44/44 45/45/45
f 16/16/16 13/13/13 17/17/17
f 16/16/16 15/15/15 13/13/13
f 46/46/46 45/45/45 47/47/47
f 47/47/47 45/45/45 17/17/17
f 48/48/48 46/46/46 47/47/47
f 13/13/13 14/14/14 17/17/17
f 14/14/14 47/47/47 17/17/17
f 15/15/15 14/14/14 13/13/13
f 48/48/48 47/47/47 14/14/14
f 15/15/15 48/48/48 14/14/14
f 55/55/55 54/54/54 53/53/53
f 56/56/56 55/55/55 53/53/53
f 59/59/59 58/58/58 57/57/57
f 60/60/60 59/59/59 57/57/57
f 63/63/63 62/62/62 61/61/61
f 64/64/64 63/63/63 61/61/61
