# VPXTOOL table OBJ file
# VPXTOOL OBJ file
# numVerts: 82 numFaces: 216
o p16off
v -0.09503299742937088 -0.04666199907660484 -0.1978680044412613
v -0.06909900158643723 -0.04666199907660484 -0.2243410050868988
v -0.0932300016283989 -0.04666199907660484 -0.024569999426603317
v 0.06395799666643143 -0.04666199907660484 -0.225722998380661
v 0.07401800155639648 -0.04666199907660484 -0.22381900250911713
v 0.08256100118160248 -0.04666199907660484 -0.21824100613594055
v 0.08834099769592285 -0.04666199907660484 -0.20979900658130646
v 0.09043099731206894 -0.04666199907660484 -0.19978900253772736
v 0.09221699833869934 -0.04666199907660484 -0.026474999263882637
v -0.09031499922275543 -0.04666199907660484 0.0011780000058934093
v 0.0338440015912056 -0.04666199907660484 0.2672420144081116
v 0.023531999439001083 -0.04666199907660484 0.2776719927787781
v 0.03942200168967247 -0.04666199907660484 0.25369301438331604
v 0.010017000138759613 -0.04666199907660484 0.2833850085735321
v -0.004643999971449375 -0.04666199907660484 0.28353700041770935
v -0.018259000033140182 -0.04666199907660484 0.27809399366378784
v -0.028790999203920364 -0.04666199907660484 0.2678990066051483
v -0.03465599939227104 -0.04666199907660484 0.2544519901275635
v 0.08982399851083755 -0.04666199907660484 -0.000691999972332269
v -0.07910899817943573 -0.04666199907660484 -0.22223499417304993
v -0.09314599633216858 -0.04666199907660484 -0.20791099965572357
v -0.08755200356245041 -0.04666199907660484 -0.21647199988365173
v -0.03465599939227104 -0.04666199907660484 0.2544519901275635
v -0.028790999203920364 -0.007098999805748463 0.2678990066051483
v -0.03465599939227104 -0.007098999805748463 0.2544519901275635
v -0.028790999203920364 -0.04666199907660484 0.2678990066051483
v -0.018259000033140182 -0.007098999805748463 0.27809399366378784
v -0.018259000033140182 -0.04666199907660484 0.27809399366378784
v -0.004643999971449375 -0.007098999805748463 0.28353700041770935
v -0.004643999971449375 -0.04666199907660484 0.28353700041770935
v 0.010017000138759613 -0.007098999805748463 0.2833850085735321
v 0.010017000138759613 -0.04666199907660484 0.2833850085735321
v 0.023531999439001083 -0.007098999805748463 0.2776719927787781
v 0.023531999439001083 -0.04666199907660484 0.2776719927787781
v 0.0338440015912056 -0.007098999805748463 0.2672420144081116
v 0.0338440015912056 -0.04666199907660484 0.2672420144081116
v 0.03942200168967247 -0.007098999805748463 0.25369301438331604
v 0.03942200168967247 -0.04666199907660484 0.25369301438331604
v -0.09031499922275543 -0.04666199907660484 0.0011780000058934093
v -0.09031499922275543 -0.007098999805748463 0.0011780000058934093
v -0.0932300016283989 -0.04666199907660484 -0.024569999426603317
v -0.0932300016283989 -0.007098999805748463 -0.024569999426603317
v -0.09503299742937088 -0.04666199907660484 -0.1978680044412613
v -0.09503299742937088 -0.007098999805748463 -0.1978680044412613
v -0.06909900158643723 -0.04666199907660484 -0.2243410050868988
v -0.07910899817943573 -0.007098999805748463 -0.22223499417304993
v -0.06909900158643723 -0.007098999805748463 -0.2243410050868988
v -0.07910899817943573 -0.04666199907660484 -0.22223499417304993
v -0.08755200356245041 -0.007098999805748463 -0.21647199988365173
v -0.08755200356245041 -0.04666199907660484 -0.21647199988365173
v -0.09314599633216858 -0.007098999805748463 -0.20791099965572357
v -0.09314599633216858 -0.04666199907660484 -0.20791099965572357
v 0.06395799666643143 -0.007098999805748463 -0.225722998380661
v 0.06395799666643143 -0.04666199907660484 -0.225722998380661
v 0.09043099731206894 -0.04666199907660484 -0.19978900253772736
v 0.08834099769592285 -0.007098999805748463 -0.20979900658130646
v 0.09043099731206894 -0.007098999805748463 -0.19978900253772736
v 0.08834099769592285 -0.04666199907660484 -0.20979900658130646
v 0.08256100118160248 -0.007098999805748463 -0.21824100613594055
v 0.08256100118160248 -0.04666199907660484 -0.21824100613594055
v 0.07401800155639648 -0.007098999805748463 -0.22381900250911713
v 0.07401800155639648 -0.04666199907660484 -0.22381900250911713
v 0.09221699833869934 -0.007098999805748463 -0.026474999263882637
v 0.09221699833869934 -0.04666199907660484 -0.026474999263882637
v 0.08982399851083755 -0.04666199907660484 -0.000691999972332269
v 0.08982399851083755 -0.007098999805748463 -0.000691999972332269
v 0.029709000140428543 -0.09278599917888641 0.10889200121164322
v 0.029709000140428543 -0.1069289967417717 0.10889200121164322
v -0.026863999664783478 -0.09278599917888641 0.10889200121164322
v -0.026863999664783478 -0.1069289967417717 0.10889200121164322
v -0.026863999664783478 -0.09278599917888641 0.14061400294303894
v -0.026863999664783478 -0.1069289967417717 0.14061400294303894
v 0.029709000140428543 -0.09278599917888641 0.14061400294303894
v 0.029709000140428543 -0.1069289967417717 0.14061400294303894
v -0.014437999576330185 -0.09278599917888641 0.09646700322628021
v -0.014437999576330185 -0.1069289967417717 0.09646700322628021
v -0.014437999576330185 -0.09278599917888641 0.15304000675678253
v -0.014437999576330185 -0.1069289967417717 0.15304000675678253
v 0.017284000292420387 -0.09278599917888641 0.15304000675678253
v 0.017284000292420387 -0.1069289967417717 0.15304000675678253
v 0.017284000292420387 -0.09278599917888641 0.09646700322628021
v 0.017284000292420387 -0.1069289967417717 0.09646700322628021
vt 0.11169800162315369 0.16632598638534546
vt 0.06377699971199036 0.2605779767036438
vt 0.42218899726867676 0.17394202947616577
vt 0.0612809993326664 0.7452620267868042
vt 0.06470800191164017 0.7818059921264648
vt 0.07484100013971329 0.8128219842910767
vt 0.09012699872255325 0.8335779905319214
vt 0.10822799801826477 0.8409219980239868
vt 0.41878199577331543 0.842432975769043
vt 0.46782299876213074 0.18464601039886475
vt 0.9324740171432495 0.6268900036811829
vt 0.950410008430481 0.5900999903678894
vt 0.9091020226478577 0.6469559669494629
vt 0.9602389931678772 0.5421119928359985
vt 0.9605010151863098 0.4901009798049927
vt 0.9511539936065674 0.44183099269866943
vt 0.9335899949073792 0.40452301502227783
vt 0.9104229807853699 0.3837739825248718
vt 0.4645240008831024 0.8330699801445007
vt 0.06757999956607819 0.22414499521255493
vt 0.0935249999165535 0.17313700914382935
vt 0.07802899926900864 0.19343799352645874
vt 0.9104229807853699 0.3837739825248718
vt 0.9037740230560303 0.401790976524353
vt 0.8811590075492859 0.3815540075302124
vt 0.9335899949073792 0.40452301502227783
vt 0.9209190011024475 0.43817901611328125
vt 0.9511539936065674 0.44183099269866943
vt 0.9300429821014404 0.485260009765625
vt 0.9605010151863098 0.4901009798049927
vt 0.9297890067100525 0.5359870195388794
vt 0.9602389931678772 0.5421119928359985
vt 0.9201939702033997 0.5827890038490295
vt 0.950410008430481 0.5900999903678894
vt 0.9026839733123779 0.6186659932136536
vt 0.9324740171432495 0.6268900036811829
vt 0.8798689842224121 0.6382330060005188
vt 0.9091020226478577 0.6469559669494629
vt 0.46782299876213074 0.18464601039886475
vt 0.44926100969314575 0.18737900257110596
vt 0.42218899726867676 0.17394202947616577
vt 0.40474599599838257 0.17694902420043945
vt 0.11169800162315369 0.16632598638534546
vt 0.101951003074646 0.1695529818534851
vt 0.06377699971199036 0.2605779767036438
vt 0.05893800035119057 0.2259119749069214
vt 0.055229999125003815 0.2614210247993469
vt 0.06757999956607819 0.22414499521255493
vt 0.06912499666213989 0.1959800124168396
vt 0.07802899926900864 0.19343799352645874
vt 0.08423300087451935 0.17619198560714722
vt 0.0935249999165535 0.17313700914382935
vt 0.05279700085520744 0.7338329553604126
vt 0.0612809993326664 0.7452620267868042
vt 0.10822799801826477 0.8409219980239868
vt 0.0809210017323494 0.8199219703674316
vt 0.09856700152158737 0.8270900249481201
vt 0.09012699872255325 0.8335779905319214
vt 0.06601700186729431 0.7996870279312134
vt 0.07484100013971329 0.8128219842910767
vt 0.05613899976015091 0.7694540023803711
vt 0.06470800191164017 0.7818059921264648
vt 0.40142300724983215 0.8286849856376648
vt 0.41878199577331543 0.842432975769043
vt 0.4645240008831024 0.8330699801445007
vt 0.446042001247406 0.8195729851722717
vt 0 1
vt 0 1
vt 0 1
vt 0 1
vt 0 1
vt 0 1
vt 0 1
vt 0 1
vt 0 1
vt 0 1
vt 0 1
vt 0 1
vt 0 1
vt 0 1
vt 0 1
vt 0 1
vn -0 1 0
vn -0 1 0
vn -0 1 0
vn -0 1 0
vn -0 1 0
vn -0 1 0
vn -0 1 0
vn -0 1 0
vn -0 1 0
vn -0 1 0
vn -0 1 0
vn -0 1 0
vn -0 1 0
vn -0 1 0
vn -0 1 0
vn -0 1 0
vn -0 1 0
vn -0 1 0
vn -0 1 0
vn -0 1 0
vn -0 1 0
vn -0 1 0
vn 0.951200008392334 0 -0.3086000084877014
vn 0.8216999769210815 0 -0.5698999762535095
vn 0.951200008392334 0 -0.30869999527931213
vn 0.8216999769210815 0 -0.5698999762535095
vn 0.5436000227928162 0 -0.8392999768257141
vn 0.5436000227928162 0 -0.8392999768257141
vn 0.1835000067949295 0 -0.9829999804496765
vn 0.1834000051021576 0 -0.9829999804496765
vn -0.2037000060081482 0 -0.9789999723434448
vn -0.2037000060081482 0 -0.9789999723434448
vn -0.5608999729156494 0 -0.8278999924659729
vn -0.5608999729156494 0 -0.8278999924659729
vn -0.8334000110626221 0 -0.5526999831199646
vn -0.8334000110626221 0 -0.5526999831199646
vn -0.9574000239372253 0 -0.2888999879360199
vn -0.9574000239372253 0 -0.2888999879360199
vn 0.9864000082015991 0 -0.16410000622272491
vn 0.9865000247955322 0 -0.16380000114440918
vn 0.9980999827384949 0 -0.061500001698732376
vn 0.9980999827384949 -0 -0.061900001019239426
vn 0.9962000250816345 0 0.08760000020265579
vn 0.9962000250816345 0 0.08760000020265579
vn 0.10869999974966049 -0 0.9940999746322632
vn 0.39239999651908875 -0 0.9197999835014343
vn 0.10869999974966049 -0 0.9940999746322632
vn 0.39239999651908875 -0 0.9197999835014343
vn 0.7142000198364258 -0 0.699999988079071
vn 0.7142000198364258 -0 0.699999988079071
vn 0.9277999997138977 -0 0.37310001254081726
vn 0.9277999997138977 -0 0.37310001254081726
vn -0.08820000290870667 -0 0.9961000084877014
vn -0.08820000290870667 -0 0.9961000084877014
vn -0.9941999912261963 0 0.10779999941587448
vn -0.9199000000953674 -0 0.3921999931335449
vn -0.9941999912261963 0 0.10779999941587448
vn -0.9199000000953674 -0 0.3921999931335449
vn -0.6995999813079834 -0 0.7145000100135803
vn -0.6995999813079834 -0 0.7145000100135803
vn -0.3734999895095825 -0 0.9276999831199646
vn -0.373199999332428 -0 0.9277999997138977
vn -0.9991999864578247 0 -0.041099999099969864
vn -0.9991999864578247 0 -0.041099999099969864
vn -0.9896000027656555 0 -0.1436000019311905
vn -0.9896000027656555 0 -0.1436000019311905
vn 0 0 1
vn 0 0 1
vn 0 0 1
vn 0 0 1
vn 0 0 -1
vn 0 0 -1
vn 0 0 -1
vn 0 0 -1
vn 1 0 0
vn 1 0 0
vn 1 0 0
vn 1 0 0
vn -1 0 0
vn -1 0 0
vn -1 0 0
vn -1 0 0
f 69/69/69 68/68/68 67/67/67
f 70/70/70 68/68/68 69/69/69
f 3/3/3 2/2/2 1/1/1
f 2/2/2 20/20/20 1/1/1
f 20/20/20 21/21/21 1/1/1
f 20/20/20 22/22/22 21/21/21
f 3/3/3 4/4/4 2/2/2
f 3/3/3 5/5/5 4/4/4
f 3/3/3 6/6/6 5/5/5
f 3/3/3 7/7/7 6/6/6
f 3/3/3 8/8/8 7/7/7
f 3/3/3 9/9/9 8/8/8
f 3/3/3 10/10/10 9/9/9
f 9/9/9 10/10/10 18/18/18
f 19/19/19 9/9/9 18/18/18
f 13/13/13 19/19/19 18/18/18
f 13/13/13 18/18/18 17/17/17
f 13/13/13 17/17/17 16/16/16
f 13/13/13 16/16/16 15/15/15
f 13/13/13 15/15/15 14/14/14
f 13/13/13 14/14/14 12/12/12
f 13/13/13 12/12/12 11/11/11
f 25/25/25 24/24/24 23/23/23
f 24/24/24 26/26/26 23/23/23
f 25/25/25 23/23/23 39/39/39
f 24/24/24 27/27/27 26/26/26
f 40/40/40 25/25/25 39/39/39
f 27/27/27 28/28/28 26/26/26
f 39/39/39 41/41/41 40/40/40
f 27/27/27 29/29/29 28/28/28
f 41/41/41 42/42/42 40/40/40
f 29/29/29 30/30/30 28/28/28
f 42/42/42 41/41/41 43/43/43
f 29/29/29 31/31/31 30/30/30
f 44/44/44 42/42/42 43/43/43
f 31/31/31 32/32/32 30/30/30
f 44/44/44 43/43/43 52/52/52
f 31/31/31 33/33/33 32/32/32
f 51/51/51 44/44/44 52/52/52
f 33/33/33 34/34/34 32/32/32
f 51/51/51 52/52/52 50/50/50
f 33/33/33 35/35/35 34/34/34
f 49/49/49 51/51/51 50/50/50
f 35/35/35 36/36/36 34/34/34
f 49/49/49 50/50/50 48/48/48
f 35/35/35 37/37/37 36/36/36
f 46/46/46 49/49/49 48/48/48
f 37/37/37 38/38/38 36/36/36
f 46/46/46 48/48/48 45/45/45
f 65/65/65 38/38/38 37/37/37
f 47/47/47 46/46/46 45/45/45
f 66/66/66 65/65/65 37/37/37
f 47/47/47 45/45/45 53/53/53
f 65/65/65 66/66/66 63/63/63
f 45/45/45 54/54/54 53/53/53
f 64/64/64 65/65/65 63/63/63
f 53/53/53 54/54/54 62/62/62
f 55/55/55 64/64/64 63/63/63
f 61/61/61 53/53/53 62/62/62
f 57/57/57 55/55/55 63/63/63
f 61/61/61 62/62/62 60/60/60
f 57/57/57 56/56/56 55/55/55
f 59/59/59 61/61/61 60/60/60
f 56/56/56 58/58/58 55/55/55
f 59/59/59 60/60/60 58/58/58
f 56/56/56 59/59/59 58/58/58
f 73/73/73 72/72/72 71/71/71
f 74/74/74 72/72/72 73/73/73
f 77/77/77 76/76/76 75/75/75
f 78/78/78 76/76/76 77/77/77
f 81/81/81 80/80/80 79/79/79
f 82/82/82 80/80/80 81/81/81
