# VPXTOOL table OBJ file
# VPXTOOL OBJ file
# numVerts: 24 numFaces: 36
o VR_Floor
v 4.520891189575195 -1.425515055656433 -6.309939861297607
v 4.520891189575195 -1.9654109477996826 1.8722670078277588
v -5.4791059494018555 -1.9721230268478394 1.8718249797821045
v -5.4791059494018555 -1.4322259426116943 -6.310382843017578
v -5.479156970977783 -1.9772260189056396 1.8715230226516724
v 4.520840167999268 -1.9705140590667725 1.8719650506973267
v 4.520840167999268 -1.4306180477142334 -6.310242176055908
v -5.479156970977783 -1.4373290538787842 -6.310685157775879
v 4.520840167999268 -1.4306180477142334 -6.310242176055908
v 4.520840167999268 -1.9705140590667725 1.8719650506973267
v 4.520891189575195 -1.9654109477996826 1.8722670078277588
v 4.520891189575195 -1.425515055656433 -6.309939861297607
v -5.479156970977783 -1.9772260189056396 1.8715230226516724
v -5.479156970977783 -1.4373290538787842 -6.310685157775879
v -5.4791059494018555 -1.4322259426116943 -6.310382843017578
v -5.4791059494018555 -1.9721230268478394 1.8718249797821045
v 4.520840167999268 -1.9705140590667725 1.8719650506973267
v -5.479156970977783 -1.9772260189056396 1.8715230226516724
v -5.4791059494018555 -1.9721230268478394 1.8718249797821045
v 4.520891189575195 -1.9654109477996826 1.8722670078277588
v -5.479156970977783 -1.4373290538787842 -6.310685157775879
v 4.520840167999268 -1.4306180477142334 -6.310242176055908
v 4.520891189575195 -1.425515055656433 -6.309939861297607
v -5.4791059494018555 -1.4322259426116943 -6.310382843017578
vt 1 1
vt 1 0
vt 0 0
vt 0 1
vt 0 0
vt 1 0
vt 1 1
vt 0 1
vt 1 1
vt 1 0
vt 1 0
vt 1 1
vt 0 0
vt 0 1
vt 0 1
vt 0 0
vt 1 0
vt 0 0
vt 0 0
vt 1 0
vt 0 1
vt 1 1
vt 1 1
vt 0 1
vn -0.000699999975040555 0.9977999925613403 0.0658000037074089
vn -0.000699999975040555 0.9977999925613403 0.0658000037074089
vn -0.000699999975040555 0.9977999925613403 0.0658000037074089
vn -0.000699999975040555 0.9977999925613403 0.0658000037074089
vn 0.000699999975040555 -0.9977999925613403 -0.0658000037074089
vn 0.000699999975040555 -0.9977999925613403 -0.0658000037074089
vn 0.000699999975040555 -0.9977999925613403 -0.0658000037074089
vn 0.000699999975040555 -0.9977999925613403 -0.0658000037074089
vn 0.9998999834060669 -0.009999999776482582 -0.000699999975040555
vn 0.9998999834060669 -0.009999999776482582 -0.000699999975040555
vn 0.9998999834060669 -0.009999999776482582 -0.000699999975040555
vn 0.9998999834060669 -0.009999999776482582 -0.000699999975040555
vn -0.9998999834060669 0.009999999776482582 0.000699999975040555
vn -0.9998999834060669 0.009999999776482582 0.000699999975040555
vn -0.9998999834060669 0.009999999776482582 0.000699999975040555
vn -0.9998999834060669 0.009999999776482582 0.000699999975040555
vn -0 -0.05900000035762787 0.9983000159263611
vn -0 -0.05900000035762787 0.9983000159263611
vn -0 -0.05900000035762787 0.9983000159263611
vn -0 -0.05900000035762787 0.9983000159263611
vn 0 0.05900000035762787 -0.9983000159263611
vn 0 0.05900000035762787 -0.9983000159263611
vn 0 0.05900000035762787 -0.9983000159263611
vn 0 0.05900000035762787 -0.9983000159263611
f 3/3/3 2/2/2 1/1/1
f 4/4/4 3/3/3 1/1/1
f 7/7/7 6/6/6 5/5/5
f 8/8/8 7/7/7 5/5/5
f 11/11/11 10/10/10 9/9/9
f 12/12/12 11/11/11 9/9/9
f 15/15/15 14/14/14 13/13/13
f 16/16/16 15/15/15 13/13/13
f 19/19/19 18/18/18 17/17/17
f 20/20/20 19/19/19 17/17/17
f 23/23/23 22/22/22 21/21/21
f 24/24/24 23/23/23 21/21/21
