# VPXTOOL table OBJ file
# VPXTOOL OBJ file
# numVerts: 62 numFaces: 234
o Primitive009
v 0 0.1901630014181137 -0.11990000307559967
v 0 0.19008399546146393 -0.2199999988079071
v 0.10997600108385086 0.19008399546146393 -0.19052599370479584
v 0.0599370002746582 0.1901630014181137 -0.10383599996566772
v 0.19048500061035156 0.19008399546146393 -0.10999999940395355
v 0.10381399840116501 0.1901630014181137 -0.059950001537799835
v 0.2199530005455017 0.19008399546146393 0
v 0.1198740005493164 0.1901630014181137 0
v 0.19048500061035156 0.19008399546146393 0.10999999940395355
v 0.10381399840116501 0.1901630014181137 0.059950001537799835
v 0.10997600108385086 0.19008399546146393 0.19052599370479584
v 0.0599370002746582 0.1901630014181137 0.10383599996566772
v 0 0.19008399546146393 0.2199999988079071
v 0 0.1901630014181137 0.11990000307559967
v -0.10997600108385086 0.19008399546146393 0.19052599370479584
v -0.0599370002746582 0.1901630014181137 0.10383599996566772
v -0.19048500061035156 0.19008399546146393 0.10999999940395355
v -0.10381399840116501 0.1901630014181137 0.059950001537799835
v -0.2199530005455017 0.19008399546146393 0
v -0.1198740005493164 0.1901630014181137 0
v -0.19048500061035156 0.19008399546146393 -0.10999999940395355
v -0.10381399840116501 0.1901630014181137 -0.059950001537799835
v -0.10997600108385086 0.19008399546146393 -0.19052599370479584
v -0.0599370002746582 0.1901630014181137 -0.10383599996566772
v 0 0.19008399546146393 -0.2199999988079071
v 0 1.5099149942398071 -0.11990000307559967
v -0.0599370002746582 1.5099149942398071 -0.10383599996566772
v 0.0599370002746582 1.5099149942398071 -0.10383599996566772
v -0.10381399840116501 1.5099149942398071 -0.059950001537799835
v 0.10381399840116501 1.5099149942398071 -0.059950001537799835
v -0.1198740005493164 1.5099149942398071 0
v 0.1198740005493164 1.5099149942398071 0
v -0.10381399840116501 1.5099149942398071 0.059950001537799835
v 0.10381399840116501 1.5099149942398071 0.059950001537799835
v -0.0599370002746582 1.5099149942398071 0.10383599996566772
v 0.0599370002746582 1.5099149942398071 0.10383599996566772
v 0 1.5099149942398071 0.11990000307559967
v 0.14000000059604645 0.19008399546146393 -0.24253900349140167
v 0.10997600108385086 0.19008399546146393 -0.19052599370479584
v 0 0.19008399546146393 -0.2199999988079071
v 0.19048500061035156 0.19008399546146393 -0.10999999940395355
v -0.14000000059604645 0.19008399546146393 -0.24253900349140167
v 0.2800000011920929 0.19008399546146393 0
v 0.2199530005455017 0.19008399546146393 0
v 0.19048500061035156 0.19008399546146393 0.10999999940395355
v 0.14000000059604645 0.19008399546146393 0.24253900349140167
v 0.10997600108385086 0.19008399546146393 0.19052599370479584
v 0 0.19008399546146393 0.2199999988079071
v -0.14000000059604645 0.19008399546146393 0.24253900349140167
v -0.10997600108385086 0.19008399546146393 0.19052599370479584
v -0.19048500061035156 0.19008399546146393 0.10999999940395355
v -0.2800000011920929 0.19008399546146393 0
v -0.2199530005455017 0.19008399546146393 0
v -0.19048500061035156 0.19008399546146393 -0.10999999940395355
v -0.10997600108385086 0.19008399546146393 -0.19052599370479584
v 0 0.19008399546146393 -0.2199999988079071
v -0.2800000011920929 -0.009916000068187714 -0
v -0.14000000059604645 -0.009916000068187714 0.24253900349140167
v -0.14000000059604645 -0.009916000068187714 -0.24253900349140167
v 0.14000000059604645 -0.009916000068187714 -0.24253900349140167
v 0.2800000011920929 -0.009916000068187714 -0
v 0.14000000059604645 -0.009916000068187714 0.24253900349140167
vt 0 0
vt 0 0
vt 0.08333300054073334 0
vt 0.08333300054073334 0
vt 0.16666699945926666 0
vt 0.16666699945926666 0
vt 0.25 0
vt 0.25 0
vt 0.33333298563957214 0
vt 0.33333298563957214 0
vt 0.41666701436042786 0
vt 0.41666701436042786 0
vt 0.5 0
vt 0.5 0
vt 0.5833330154418945 0
vt 0.5833330154418945 0
vt 0.6666669845581055 0
vt 0.6666669845581055 0
vt 0.75 0
vt 0.75 0
vt 0.8333330154418945 0
vt 0.8333330154418945 0
vt 0.9166669845581055 0
vt 0.9166669845581055 0
vt 1 0
vt 0 0
vt 0.9166669845581055 0
vt 0.08333300054073334 0
vt 0.8333330154418945 0
vt 0.16666699945926666 0
vt 0.75 0
vt 0.25 0
vt 0.6666669845581055 0
vt 0.33333298563957214 0
vt 0.5833330154418945 0
vt 0.41666701436042786 0
vt 0.5 0
vt 0.08333300054073334 1
vt 0.08333300054073334 1
vt 0 1
vt 0.16666699945926666 1
vt 0.9166669845581055 1
vt 0.25 1
vt 0.25 1
vt 0.33333298563957214 1
vt 0.41666701436042786 1
vt 0.41666701436042786 1
vt 0.5 1
vt 0.5833330154418945 1
vt 0.5833330154418945 1
vt 0.6666669845581055 1
vt 0.75 1
vt 0.75 1
vt 0.8333330154418945 1
vt 0.9166669845581055 1
vt 1 1
vt 0.75 1
vt 0.5833330154418945 1
vt 0.9166669845581055 1
vt 0.08333300054073334 1
vt 0.25 1
vt 0.41666701436042786 1
vn -0 0.08900000154972076 -0.9959999918937683
vn -0 1 -0.0003000000142492354
vn -0 1 0
vn 0.49790000915527344 0.08889999985694885 -0.8626000285148621
vn -0 1 0
vn 0.8626000285148621 0.08889999985694885 -0.49810001254081726
vn 0.0003000000142492354 1 0
vn 0.9959999918937683 0.08889999985694885 -0
vn -0 1 0
vn 0.8626000285148621 0.08889999985694885 0.49810001254081726
vn 0.00019999999494757503 1 0.0003000000142492354
vn 0.49790000915527344 0.08889999985694885 0.8626000285148621
vn -0 1 0
vn -0 0.08900000154972076 0.9959999918937683
vn -0.00019999999494757503 1 0.0003000000142492354
vn -0.49790000915527344 0.08889999985694885 0.8626000285148621
vn -0 1 0
vn -0.8626000285148621 0.08889999985694885 0.49810001254081726
vn -0 1 0
vn -0.9959999918937683 0.08889999985694885 -0
vn -0 1 0
vn -0.8626000285148621 0.08889999985694885 -0.49810001254081726
vn -0 1 0
vn -0.49790000915527344 0.08889999985694885 -0.8626000285148621
vn -0 1 -0.0003000000142492354
vn 0 0 -1
vn -0.5001000165939331 0 -0.8659999966621399
vn 0.5001000165939331 0 -0.8659999966621399
vn -0.866100013256073 0 -0.4999000132083893
vn 0.866100013256073 0 -0.4999000132083893
vn -1 0 0
vn 1 0 -0
vn -0.866100013256073 -0 0.4999000132083893
vn 0.866100013256073 -0 0.4999000132083893
vn -0.5001000165939331 -0 0.8659999966621399
vn 0.5001000165939331 -0 0.8659999966621399
vn 0 -0 1
vn 0.2313999980688095 0.9710000157356262 0.06019999831914902
vn -0 1 0
vn -0 1 -0.0003000000142492354
vn -0 1 0
vn 0.1678999960422516 0.9710000157356262 -0.17030000686645508
vn 0.06360000371932983 0.9710000157356262 0.2304999977350235
vn 0.0003000000142492354 1 0
vn -0 1 0
vn -0.1678999960422516 0.9710000157356262 0.1703999936580658
vn 0.00019999999494757503 1 0.0003000000142492354
vn -0 1 0
vn -0.23149999976158142 0.9710000157356262 -0.06030000001192093
vn -0.00019999999494757503 1 0.0003000000142492354
vn -0 1 0
vn -0.06360000371932983 0.9710000157356262 -0.2304999977350235
vn -0 1 0
vn -0 1 0
vn -0 1 0
vn -0 1 -0.0003000000142492354
vn -0.866100013256073 -0 0.4999000132083893
vn 0 -0 1
vn -0.866100013256073 0 -0.4999000132083893
vn 0 0 -1
vn 0.866100013256073 0 -0.4999000132083893
vn 0.866100013256073 -0 0.4999000132083893
f 56/56/56 42/42/42 55/55/55
f 54/54/54 55/55/55 42/42/42
f 42/42/42 52/52/52 54/54/54
f 54/54/54 52/52/52 53/53/53
f 51/51/51 53/53/53 52/52/52
f 52/52/52 42/42/42 59/59/59
f 59/59/59 57/57/57 52/52/52
f 60/60/60 59/59/59 42/42/42
f 49/49/49 52/52/52 57/57/57
f 52/52/52 49/49/49 51/51/51
f 51/51/51 49/49/49 50/50/50
f 57/57/57 58/58/58 49/49/49
f 48/48/48 50/50/50 49/49/49
f 42/42/42 38/38/38 60/60/60
f 40/40/40 38/38/38 42/42/42
f 40/40/40 39/39/39 38/38/38
f 61/61/61 60/60/60 38/38/38
f 41/41/41 38/38/38 39/39/39
f 49/49/49 46/46/46 48/48/48
f 46/46/46 49/49/49 58/58/58
f 48/48/48 46/46/46 47/47/47
f 58/58/58 62/62/62 46/46/46
f 45/45/45 47/47/47 46/46/46
f 62/62/62 61/61/61 43/43/43
f 43/43/43 46/46/46 62/62/62
f 38/38/38 43/43/43 61/61/61
f 46/46/46 43/43/43 45/45/45
f 43/43/43 38/38/38 41/41/41
f 45/45/45 43/43/43 44/44/44
f 41/41/41 44/44/44 43/43/43
f 3/3/3 2/2/2 1/1/1
f 1/1/1 4/4/4 3/3/3
f 3/3/3 4/4/4 5/5/5
f 4/4/4 1/1/1 26/26/26
f 27/27/27 26/26/26 1/1/1
f 26/26/26 28/28/28 4/4/4
f 1/1/1 24/24/24 27/27/27
f 1/1/1 25/25/25 24/24/24
f 29/29/29 27/27/27 24/24/24
f 23/23/23 24/24/24 25/25/25
f 6/6/6 4/4/4 28/28/28
f 6/6/6 5/5/5 4/4/4
f 28/28/28 30/30/30 6/6/6
f 7/7/7 5/5/5 6/6/6
f 22/22/22 24/24/24 23/23/23
f 24/24/24 22/22/22 29/29/29
f 23/23/23 21/21/21 22/22/22
f 31/31/31 29/29/29 22/22/22
f 6/6/6 8/8/8 7/7/7
f 8/8/8 6/6/6 30/30/30
f 7/7/7 8/8/8 9/9/9
f 30/30/30 32/32/32 8/8/8
f 22/22/22 20/20/20 31/31/31
f 22/22/22 21/21/21 20/20/20
f 33/33/33 31/31/31 20/20/20
f 19/19/19 20/20/20 21/21/21
f 10/10/10 8/8/8 32/32/32
f 10/10/10 9/9/9 8/8/8
f 32/32/32 34/34/34 10/10/10
f 11/11/11 9/9/9 10/10/10
f 18/18/18 20/20/20 19/19/19
f 20/20/20 18/18/18 33/33/33
f 19/19/19 17/17/17 18/18/18
f 35/35/35 33/33/33 18/18/18
f 10/10/10 12/12/12 11/11/11
f 12/12/12 10/10/10 34/34/34
f 11/11/11 12/12/12 13/13/13
f 34/34/34 36/36/36 12/12/12
f 18/18/18 16/16/16 35/35/35
f 18/18/18 17/17/17 16/16/16
f 37/37/37 35/35/35 16/16/16
f 15/15/15 16/16/16 17/17/17
f 36/36/36 37/37/37 14/14/14
f 16/16/16 14/14/14 37/37/37
f 14/14/14 12/12/12 36/36/36
f 14/14/14 16/16/16 15/15/15
f 14/14/14 13/13/13 12/12/12
f 15/15/15 13/13/13 14/14/14
